<?xml version="1.0" standalone="no"?>
<!DOCTYPE svg PUBLIC "-//W3C//DTD SVG 20010904//EN"
 "http://www.w3.org/TR/2001/REC-SVG-20010904/DTD/svg10.dtd">
<svg version="1.0" xmlns="http://www.w3.org/2000/svg"
 width="700.000000pt" height="700.000000pt" viewBox="0 0 700.000000 700.000000"
 preserveAspectRatio="xMidYMid meet">
<metadata>
Created by potrace 1.11, written by Peter Selinger 2001-2013
</metadata>
<g transform="translate(0.000000,700.000000) scale(0.100000,-0.100000)"
fill="#000000" stroke="none">
<path d="M3225 6673 c-202 -17 -380 -78 -552 -190 -282 -183 -408 -408 -437
-781 -3 -30 -7 -56 -9 -59 -3 -2 -31 9 -63 25 -73 37 -251 98 -324 111 -98 17
-264 7 -365 -24 -132 -39 -290 -119 -394 -200 -197 -152 -321 -346 -366 -575
-7 -33 -7 -168 -1 -199 24 -114 75 -210 166 -314 170 -194 441 -343 845 -466
102 -31 402 -105 465 -115 19 -3 94 -17 165 -31 112 -22 261 -47 358 -60 16
-2 40 -6 55 -9 15 -3 45 -8 67 -11 112 -16 386 -55 430 -60 28 -4 57 -8 66
-11 10 -3 19 3 22 13 5 17 158 395 176 438 109 246 333 913 375 1120 4 17 9
41 12 55 8 40 32 162 38 194 12 69 21 201 20 326 -2 405 -148 671 -425 774
-94 34 -236 56 -324 49z m-688 -1578 c83 -109 286 -425 373 -580 13 -22 36
-62 52 -90 70 -122 248 -489 248 -512 0 -34 -289 397 -389 582 -18 33 -36 65
-41 70 -33 44 -245 469 -282 565 -10 28 -6 23 39 -35z m703 -482 c31 -136 31
-505 1 -670 -5 -23 -6 -43 -2 -43 3 0 -2 -5 -11 -11 -34 -19 -312 113 -497
236 -86 58 -197 145 -185 145 34 0 257 -107 396 -189 84 -49 247 -165 259
-184 8 -11 23 29 15 41 -9 14 -20 206 -20 342 0 121 8 250 19 305 2 11 4 33 4
49 1 37 10 28 21 -21z"/>
<path d="M4824 6289 c-190 -25 -382 -174 -537 -414 -51 -80 -142 -266 -180
-370 -69 -188 -153 -493 -191 -695 -9 -47 -27 -143 -40 -215 -24 -126 -33
-175 -42 -241 -2 -17 -15 -103 -29 -190 -13 -88 -27 -175 -29 -194 -3 -19 -7
-57 -11 -85 -4 -27 -8 -61 -11 -75 -2 -14 -6 -50 -10 -80 -3 -30 -7 -59 -8
-64 -1 -11 407 -179 719 -295 243 -91 535 -190 650 -221 44 -12 87 -23 95 -25
62 -17 238 -55 300 -65 41 -6 86 -14 100 -16 62 -11 175 -17 291 -16 190 2
385 47 505 117 192 113 307 332 305 585 0 52 -3 105 -5 117 -3 11 -8 43 -11
70 -18 120 -87 282 -179 421 -183 275 -400 398 -756 428 -41 3 -76 7 -77 8 -2
1 17 47 41 103 119 269 134 484 52 712 -163 452 -566 751 -942 700z m341
-1805 c-133 -104 -433 -298 -630 -409 -245 -138 -581 -303 -592 -291 -9 9 380
271 502 340 17 9 37 21 45 26 115 75 658 350 690 349 3 0 -4 -7 -15 -15z
m-881 -96 c-71 -176 -230 -449 -341 -587 l-28 -34 40 7 c174 30 577 28 715 -2
l35 -8 -35 -7 c-19 -4 -60 -9 -90 -13 -30 -3 -66 -7 -80 -10 -32 -5 -321 -5
-380 1 -25 2 -82 9 -128 16 -78 10 -82 12 -76 33 22 71 128 296 180 378 64
103 102 157 152 221 29 37 55 67 57 67 2 0 -8 -28 -21 -62z"/>
<path d="M970 3970 c-25 -5 -65 -11 -88 -15 -152 -23 -328 -109 -412 -201
-279 -306 -207 -885 157 -1252 114 -115 220 -178 376 -221 65 -19 114 -27 272
-46 27 -3 51 -7 52 -9 2 -2 -16 -43 -38 -91 -67 -144 -100 -271 -104 -400 -4
-129 5 -187 47 -310 119 -349 388 -618 699 -696 113 -29 264 -23 357 14 200
81 380 274 519 557 84 173 180 455 228 670 2 8 15 65 29 125 13 61 27 124 29
140 3 17 12 68 21 115 8 47 18 97 20 113 3 15 7 35 10 45 2 9 7 37 10 62 3 25
8 54 10 65 2 11 7 42 10 68 4 27 9 56 11 65 1 10 6 37 9 62 3 25 8 56 10 70 3
14 12 77 20 140 9 63 18 124 20 136 2 11 7 47 10 80 4 32 9 66 12 76 4 13 -59
42 -353 158 -197 79 -376 149 -398 157 -126 46 -477 166 -520 178 -27 8 -75
21 -105 30 -30 9 -62 17 -70 19 -8 2 -33 9 -55 14 -22 6 -51 13 -65 16 -14 3
-59 12 -100 21 -41 9 -86 18 -100 20 -14 2 -41 6 -60 9 -76 14 -111 16 -265
20 -88 2 -180 0 -205 -4z m2010 -681 c36 -5 81 -12 100 -15 19 -3 40 -6 47 -7
13 0 8 -38 -12 -82 -70 -153 -112 -236 -169 -329 -65 -109 -187 -278 -195
-271 -7 8 62 167 119 275 64 120 170 284 224 345 36 41 33 59 -9 50 -68 -15
-112 -17 -310 -20 -121 -2 -245 0 -275 5 -30 5 -77 12 -105 15 -48 7 -49 8
-20 16 17 5 66 12 110 15 44 4 82 8 84 10 8 7 349 1 411 -7z m130 -44 c0 -18
-389 -276 -590 -390 -36 -21 -78 -45 -95 -55 -135 -77 -529 -270 -552 -270
-22 0 311 227 502 341 121 73 114 69 197 113 40 21 78 42 83 46 12 9 317 163
325 164 3 0 30 12 60 27 55 28 70 33 70 24z"/>
<path d="M3605 3257 c-9 -23 -23 -58 -32 -77 -28 -64 -32 -74 -107 -265 -107
-272 -170 -438 -201 -530 -14 -44 -31 -89 -35 -100 -46 -105 -173 -558 -195
-695 -3 -19 -10 -57 -15 -85 -28 -157 -35 -418 -14 -550 32 -199 93 -334 200
-441 94 -95 201 -147 369 -179 39 -7 209 -7 255 1 243 39 468 153 641 324 156
154 232 329 256 587 3 43 7 86 7 96 0 9 2 17 4 17 2 0 34 -14 70 -31 273 -127
490 -148 727 -73 74 24 241 110 315 162 85 60 180 152 240 231 45 60 126 208
135 249 39 160 44 251 19 357 -29 118 -104 235 -222 346 -118 110 -232 181
-442 277 -172 78 -622 209 -820 238 -19 3 -42 7 -50 9 -8 2 -31 7 -50 10 -19
3 -66 12 -105 20 -93 19 -214 39 -305 51 -19 2 -73 11 -120 18 -73 13 -154 24
-210 31 -29 3 -125 17 -145 21 -11 2 -47 7 -80 10 -33 4 -63 8 -66 10 -4 2
-14 -15 -24 -39z m197 -131 c77 -29 230 -105 316 -157 35 -21 68 -39 72 -39 5
0 10 -4 12 -8 2 -5 30 -27 63 -49 33 -22 78 -57 100 -76 l40 -36 -43 14 c-23
8 -50 19 -60 24 -257 126 -403 211 -508 298 -24 19 -47 32 -53 29 -5 -3 -12 0
-14 6 -3 7 -3 0 -1 -17 17 -108 29 -258 28 -365 -1 -135 -6 -198 -28 -352 -5
-35 -13 -27 -20 19 -16 115 -20 178 -20 328 0 186 11 330 30 393 5 17 14 15
86 -12z m-16 -58 c21 -29 43 -60 49 -69 5 -9 41 -63 79 -120 115 -172 125
-189 279 -457 77 -133 263 -519 254 -528 -8 -8 -250 351 -337 500 -117 201
-166 292 -255 471 -130 264 -145 307 -69 203z"/>
</g>
</svg>
