<?xml version="1.0" standalone="no"?>
<!DOCTYPE svg PUBLIC "-//W3C//DTD SVG 20010904//EN"
 "http://www.w3.org/TR/2001/REC-SVG-20010904/DTD/svg10.dtd">
<svg version="1.0" xmlns="http://www.w3.org/2000/svg"
 width="700.000000pt" height="700.000000pt" viewBox="0 0 700.000000 700.000000"
 preserveAspectRatio="xMidYMid meet">
<metadata>
Created by potrace 1.11, written by Peter Selinger 2001-2013
</metadata>
<g transform="translate(0.000000,700.000000) scale(0.100000,-0.100000)"
fill="#000000" stroke="none">
<path d="M3113 6744 c-280 -41 -595 -230 -745 -448 -97 -141 -161 -358 -167
-570 -1 -34 1 -34 -129 23 -80 35 -166 64 -264 87 -45 11 -244 13 -298 3 -127
-24 -313 -106 -445 -196 -106 -73 -248 -220 -308 -321 -151 -250 -161 -512
-29 -721 190 -301 603 -517 1287 -674 61 -14 126 -28 145 -31 19 -3 93 -17
165 -31 116 -23 332 -59 425 -71 19 -2 60 -9 90 -14 30 -5 71 -12 90 -14 109
-15 193 -26 260 -36 41 -6 93 -13 115 -16 l40 -5 24 63 c22 58 39 101 62 153
5 11 29 72 54 135 25 63 50 123 55 132 6 10 10 23 10 29 0 6 6 25 14 42 102
232 319 883 350 1053 3 16 14 74 26 128 51 244 62 554 26 720 -59 269 -165
421 -361 516 -140 67 -315 90 -492 64z m-458 -1814 c73 -110 255 -406 255
-414 0 -2 24 -46 53 -97 96 -171 241 -473 235 -491 -4 -10 -147 188 -213 294
-174 278 -265 438 -371 649 -68 136 -144 303 -144 317 0 10 93 -120 185 -258z
m579 -280 c29 -176 29 -563 0 -707 -4 -21 -13 -33 -23 -34 -10 0 -11 -2 -3 -6
6 -2 12 -8 12 -13 0 -20 -265 103 -410 190 -109 65 -294 199 -287 206 2 3 26
-4 53 -15 189 -74 427 -209 560 -317 30 -25 59 -42 65 -38 7 4 8 28 4 68 -28
253 -24 523 10 676 8 38 11 36 19 -10z"/>
<path d="M4803 6350 c-206 -48 -426 -261 -575 -555 -107 -210 -232 -591 -282
-855 -2 -14 -9 -45 -14 -70 -6 -25 -13 -61 -16 -80 -7 -44 -15 -87 -21 -120
-22 -109 -45 -241 -65 -380 -12 -80 -24 -154 -26 -164 -5 -25 -25 -172 -29
-211 -2 -16 -6 -43 -9 -60 -9 -48 -20 -138 -20 -169 -1 -26 5 -30 66 -55 36
-14 70 -30 74 -34 4 -4 13 -7 20 -7 8 0 37 -11 66 -24 94 -42 548 -217 723
-279 254 -89 518 -170 634 -193 12 -3 51 -11 85 -19 34 -8 79 -17 101 -20 22
-3 60 -10 85 -15 124 -26 378 -33 516 -14 357 49 565 211 643 503 64 239 12
529 -140 776 -122 200 -230 307 -387 385 -97 49 -198 80 -307 94 -90 12 -117
15 -156 18 -43 2 -46 6 -24 48 32 61 86 207 107 284 24 91 33 270 18 351 -15
77 -70 234 -102 288 -15 26 -28 53 -28 58 0 19 -118 182 -172 240 -225 236
-508 340 -765 279z m426 -1824 c-41 -41 -347 -245 -546 -364 -231 -139 -622
-340 -713 -367 -36 -11 85 79 268 199 280 183 591 356 872 483 114 51 127 57
119 49z m-935 -138 c-77 -183 -199 -396 -310 -540 -46 -59 -45 -72 3 -64 154
28 496 28 683 -1 25 -4 50 -6 55 -4 6 1 6 -1 2 -6 -5 -4 -12 -8 -15 -9 -4 0
-47 -6 -95 -13 -138 -21 -484 -19 -592 3 -11 3 -30 5 -42 5 -12 1 -29 8 -37
17 -11 10 -16 11 -16 3 0 -7 -3 -10 -6 -6 -3 3 1 20 9 39 8 18 25 58 37 88 35
88 126 257 197 364 69 107 144 205 155 205 4 1 -8 -36 -28 -81z"/>
<path d="M860 3978 c-217 -44 -345 -101 -450 -200 -181 -172 -243 -475 -159
-783 29 -105 94 -244 162 -347 54 -81 69 -100 146 -183 102 -112 307 -214 481
-240 25 -4 56 -8 70 -11 14 -2 55 -6 90 -9 35 -3 66 -8 69 -10 2 -3 -12 -40
-31 -82 -94 -206 -112 -280 -112 -463 0 -136 2 -151 33 -242 103 -313 305
-562 556 -686 131 -65 219 -86 356 -84 251 3 489 186 672 518 46 84 134 276
142 309 1 5 7 23 13 38 53 129 165 573 198 782 3 22 8 43 9 46 3 4 51 282 60
344 4 32 55 377 60 405 2 14 6 45 9 70 3 25 10 72 16 105 14 85 13 89 -17 101
-42 17 -435 174 -458 184 -180 76 -638 239 -825 294 -69 20 -138 40 -155 46
-16 5 -79 20 -140 34 -96 22 -148 31 -330 61 -64 11 -416 13 -465 3z m2090
-692 c25 -3 63 -8 85 -11 53 -6 87 -13 92 -18 14 -15 -103 -266 -193 -415 -68
-112 -194 -286 -201 -278 -6 6 43 127 90 221 54 108 148 264 214 353 30 41 52
76 50 79 -3 2 -38 -20 -79 -49 -60 -45 -273 -186 -353 -235 -82 -49 -187 -111
-225 -132 -25 -13 -80 -43 -122 -67 -103 -57 -402 -202 -428 -209 -3 0 -16 -6
-30 -13 -22 -12 -21 -10 6 15 65 59 391 273 579 381 173 98 215 120 420 222
206 101 253 121 241 101 -4 -6 -3 -11 3 -11 5 0 9 8 8 18 -1 16 -6 18 -37 11
-137 -32 -544 -32 -705 0 -63 13 -13 25 145 37 47 4 86 7 87 9 6 4 311 -3 353
-9z"/>
<path d="M3570 3158 c-29 -73 -61 -151 -71 -173 -9 -22 -40 -101 -69 -175 -29
-74 -66 -169 -82 -210 -126 -315 -267 -770 -317 -1020 -17 -86 -19 -95 -26
-147 -4 -26 -8 -58 -10 -71 -30 -194 -22 -414 21 -580 62 -237 159 -369 339
-458 281 -139 643 -94 970 122 104 69 238 196 286 274 64 102 118 245 133 355
3 22 8 54 11 70 6 28 12 91 14 143 l1 22 61 -30 c179 -91 357 -135 514 -127
55 3 109 7 120 10 11 3 34 8 50 12 17 4 39 10 50 15 11 5 45 18 77 29 62 22
223 108 278 149 185 136 321 318 379 507 51 163 42 327 -25 460 -42 84 -50 96
-111 164 -140 160 -325 281 -595 389 -107 43 -326 116 -376 127 -9 2 -80 19
-157 38 -77 19 -153 37 -170 40 -16 3 -66 13 -110 21 -44 8 -93 18 -110 21
-16 3 -64 12 -105 20 -41 7 -93 16 -115 20 -22 3 -69 10 -105 16 -60 9 -84 13
-150 24 -14 2 -45 7 -70 10 -25 3 -56 7 -70 10 -14 3 -43 7 -65 10 -22 2 -105
14 -184 25 -80 11 -148 20 -151 20 -3 0 -30 -60 -60 -132z m395 -111 c66 -33
139 -73 163 -88 24 -16 46 -29 49 -29 7 0 189 -131 228 -164 l30 -26 -55 20
c-190 72 -482 239 -611 351 -12 10 -26 19 -32 19 -9 0 -8 -12 11 -125 9 -54 9
-456 0 -527 -24 -184 -29 -179 -54 57 -7 66 -7 335 1 405 9 87 25 192 31 201
7 11 100 -25 239 -94z m-137 -39 c43 -62 96 -140 117 -173 21 -33 50 -78 65
-100 29 -43 111 -182 197 -334 56 -100 231 -449 257 -516 l16 -40 -30 35 c-27
32 -152 208 -175 248 -6 9 -31 49 -56 87 -122 186 -306 519 -410 742 -95 206
-94 210 19 51z"/>
</g>
</svg>
