<?xml version="1.0" encoding="UTF-8" standalone="no"?>
<svg
   xmlns:dc="http://purl.org/dc/elements/1.1/"
   xmlns:cc="http://creativecommons.org/ns#"
   xmlns:rdf="http://www.w3.org/1999/02/22-rdf-syntax-ns#"
   xmlns:svg="http://www.w3.org/2000/svg"
   xmlns="http://www.w3.org/2000/svg"
   xmlns:sodipodi="http://sodipodi.sourceforge.net/DTD/sodipodi-0.dtd"
   xmlns:inkscape="http://www.inkscape.org/namespaces/inkscape"
   enable-background="new 0 0 200 200"
   height="200px"
   id="Layer_1"
   version="1.0"
   viewBox="0 0 200 200"
   width="200px"
   xml:space="preserve"
   inkscape:version="0.91 r13725"
   sodipodi:docname="smartphone.svg"><metadata
     id="metadata54"><rdf:RDF><cc:Work
         rdf:about=""><dc:format>image/svg+xml</dc:format><dc:type
           rdf:resource="http://purl.org/dc/dcmitype/StillImage" /></cc:Work></rdf:RDF></metadata><defs
     id="defs52" /><sodipodi:namedview
     pagecolor="#ffffff"
     bordercolor="#666666"
     borderopacity="1"
     objecttolerance="10"
     gridtolerance="10"
     guidetolerance="10"
     inkscape:pageopacity="0"
     inkscape:pageshadow="2"
     inkscape:window-width="1366"
     inkscape:window-height="705"
     id="namedview50"
     showgrid="false"
     inkscape:zoom="1.7274398"
     inkscape:cx="-38.22232"
     inkscape:cy="105.14521"
     inkscape:window-x="0"
     inkscape:window-y="0"
     inkscape:window-maximized="1"
     inkscape:current-layer="Layer_1" /><g
     id="New_Symbol" /><g
     id="New_Symbol_1_" /><g
     id="New_Symbol_1" /><g
     id="New_Symbol_9_2_" /><g
     id="New_Symbol_7" /><g
     id="New_Symbol_9_1_" /><g
     id="New_Symbol_9" /><g
     id="Nuevo_símbolo" /><g
     id="New_Symbol_10" /><g
     id="New_Symbol_12" /><g
     id="New_Symbol_14" /><g
     id="New_Symbol_15" /><g
     id="New_Symbol_16" /><g
     id="New_Symbol_17_1_" /><g
     id="New_Symbol_18" /><g
     id="New_Symbol_19" /><g
     id="New_Symbol_17" /><g
     id="g20"
     style="fill:#5c6269;fill-opacity:1"><path
       d="M138,18H62c-5.5,0-10,4.5-10,10V172c0,5.5,4.5,10,10,10H138c5.5,0,10-4.5,10-10V28C148,22.5,143.5,18,138,18z M146,172   c0,4.4-3.6,8-8,8H62c-4.4,0-8-3.6-8-8V28c0-4.4,3.6-8,8-8H138c4.4,0,8,3.6,8,8V172z"
       id="path22"
       style="fill:#5c6269;fill-opacity:1" /><path
       d="M100,166.4c-3.2,0-5.8,2.6-5.8,5.8s2.6,5.8,5.8,5.8s5.8-2.6,5.8-5.8S103.2,166.4,100,166.4z M100,176   c-2.1,0-3.8-1.7-3.8-3.8c0-2.1,1.7-3.8,3.8-3.8c2.1,0,3.8,1.7,3.8,3.8C103.8,174.3,102.1,176,100,176z"
       id="path24"
       style="fill:#5c6269;fill-opacity:1" /><path
       d="M88.4,28h23.2c1.4,0,2.5-1.1,2.5-2.5S113,23,111.6,23H88.4c-1.4,0-2.5,1.1-2.5,2.5S87,28,88.4,28z M88.4,25h23.2   c0.3,0,0.5,0.2,0.5,0.5s-0.2,0.5-0.5,0.5H88.4c-0.3,0-0.5-0.2-0.5-0.5S88.1,25,88.4,25z"
       id="path26"
       style="fill:#5c6269;fill-opacity:1" /><path
       d="M98,99c0,0.6,0.4,1,1,1h31c0.6,0,1-0.4,1-1s-0.4-1-1-1H99C98.4,98,98,98.4,98,99z"
       id="path28"
       style="fill:#5c6269;fill-opacity:1" /><path
       d="M130,105H99c-0.6,0-1,0.4-1,1s0.4,1,1,1h31c0.6,0,1-0.4,1-1S130.6,105,130,105z"
       id="path30"
       style="fill:#5c6269;fill-opacity:1" /><path
       d="M130,111H99c-0.6,0-1,0.4-1,1s0.4,1,1,1h31c0.6,0,1-0.4,1-1S130.6,111,130,111z"
       id="path32"
       style="fill:#5c6269;fill-opacity:1" /><path
       d="M141,30H59v40.4c0,0.2-0.2,0.4-0.2,0.6s0.2,0.5,0.2,0.6V164h11.5c0.1,0,0.3,0.2,0.5,0.2s0.3-0.2,0.5-0.2h19   c0.1,0,0.3,0.2,0.5,0.2s0.3-0.2,0.5-0.2H141V71.6c0-0.2,0.2-0.4,0.2-0.6s-0.2-0.5-0.2-0.6V30z M90,162H72v-13h18V162z M139,162H92   v-15H70v15h-9V72h24.9c0.5,7.6,6.8,13.5,14.5,13.5s14-6,14.5-13.5h24V162z M113,71.1c0,2.8-1,5.3-2.5,7.4c-1.1-3.2-3.7-5.6-6.8-6.6   c1.2-1,2-2.4,2-4.1c0-2.9-2.3-5.2-5.2-5.2s-5.2,2.3-5.2,5.2c0,1.6,0.8,3.1,2,4.1c-3.2,1-5.7,3.5-6.8,6.6c-1.5-2-2.4-4.4-2.5-7.1   C88,71.3,88,71.2,88,71c0-0.2,0-0.3-0.1-0.4c0.2-6.8,5.8-12.2,12.6-12.2c6.9,0,12.5,5.6,12.6,12.5c0,0,0,0.1,0,0.1   C113,71,113,71.1,113,71.1z M100.4,73.4c4.1,0,7.6,2.9,8.4,6.8c-2.2,2-5.2,3.3-8.4,3.3s-6.2-1.3-8.4-3.3   C92.8,76.3,96.4,73.4,100.4,73.4z M97.3,67.9c0-1.8,1.4-3.2,3.2-3.2s3.2,1.4,3.2,3.2s-1.4,3.2-3.2,3.2S97.3,69.6,97.3,67.9z    M139,70h-24c-0.5-7.6-6.8-13.6-14.5-13.6s-14,6-14.5,13.6H61V32h78V70z"
       id="path34"
       style="fill:#5c6269;fill-opacity:1" /><path
       d="M70,116h22V96H70V116z M72,98h18v16H72V98z"
       id="path36"
       style="fill:#5c6269;fill-opacity:1" /><path
       d="M130,123H99c-0.6,0-1,0.4-1,1s0.4,1,1,1h31c0.6,0,1-0.4,1-1S130.6,123,130,123z"
       id="path38"
       style="fill:#5c6269;fill-opacity:1" /><path
       d="M130,130H99c-0.6,0-1,0.4-1,1s0.4,1,1,1h31c0.6,0,1-0.4,1-1S130.6,130,130,130z"
       id="path40"
       style="fill:#5c6269;fill-opacity:1" /><path
       d="M130,136H99c-0.6,0-1,0.4-1,1s0.4,1,1,1h31c0.6,0,1-0.4,1-1S130.6,136,130,136z"
       id="path42"
       style="fill:#5c6269;fill-opacity:1" /><path
       d="M70,141h22v-20H70V141z M72,123h18v16H72V123z"
       id="path44"
       style="fill:#5c6269;fill-opacity:1" /><path
       d="M130,149H99c-0.6,0-1,0.4-1,1s0.4,1,1,1h31c0.6,0,1-0.4,1-1S130.6,149,130,149z"
       id="path46"
       style="fill:#5c6269;fill-opacity:1" /><path
       d="M130,156H99c-0.6,0-1,0.4-1,1s0.4,1,1,1h31c0.6,0,1-0.4,1-1S130.6,156,130,156z"
       id="path48"
       style="fill:#5c6269;fill-opacity:1" /></g></svg>