<?xml version="1.0" encoding="UTF-8" standalone="no"?>
<svg
   xmlns:dc="http://purl.org/dc/elements/1.1/"
   xmlns:cc="http://creativecommons.org/ns#"
   xmlns:rdf="http://www.w3.org/1999/02/22-rdf-syntax-ns#"
   xmlns:svg="http://www.w3.org/2000/svg"
   xmlns="http://www.w3.org/2000/svg"
   xmlns:sodipodi="http://sodipodi.sourceforge.net/DTD/sodipodi-0.dtd"
   xmlns:inkscape="http://www.inkscape.org/namespaces/inkscape"
   height="110px"
   style="enable-background:new 0 0 110 110;"
   version="1.0"
   viewBox="0 0 110 110"
   width="110px"
   xml:space="preserve"
   id="svg2"
   inkscape:version="0.91 r13725"
   sodipodi:docname="coding.svg"><metadata
     id="metadata102"><rdf:RDF><cc:Work
         rdf:about=""><dc:format>image/svg+xml</dc:format><dc:type
           rdf:resource="http://purl.org/dc/dcmitype/StillImage" /></cc:Work></rdf:RDF></metadata><defs
     id="defs100" /><sodipodi:namedview
     pagecolor="#ffffff"
     bordercolor="#666666"
     borderopacity="1"
     objecttolerance="10"
     gridtolerance="10"
     guidetolerance="10"
     inkscape:pageopacity="0"
     inkscape:pageshadow="2"
     inkscape:window-width="1366"
     inkscape:window-height="703"
     id="namedview98"
     showgrid="false"
     inkscape:zoom="2.1454545"
     inkscape:cx="-21.207627"
     inkscape:cy="55"
     inkscape:window-x="0"
     inkscape:window-y="0"
     inkscape:window-maximized="1"
     inkscape:current-layer="svg2" /><g
     id="Artboard" /><g
     id="g8"
     transform="matrix(1.6666667,0,0,1.6666667,-36.666669,-42.500002)"><path
       inkscape:connector-curvature="0"
       id="path10"
       style="fill:#3e3e3f"
       d="m 87,73.727 c 0,1.607 -1.302,2.909 -2.909,2.909 l -58.182,0 C 24.302,76.636 23,75.334 23,73.727 L 23,33 c 0,-1.607 1.302,-2.909 2.909,-2.909 l 58.182,0 C 85.698,30.091 87,31.393 87,33 l 0,40.727 z" /><rect
       id="rect12"
       y="76.636002"
       x="46.272999"
       width="17.455"
       style="fill:#e2e4e5"
       height="7.4549999" /><path
       inkscape:connector-curvature="0"
       id="path14"
       style="fill:#f0f1f1"
       d="M 69.545,85.545 C 69.545,86.348 68.894,87 68.09,87 l -26.181,0 c -0.803,0 -1.455,-0.651 -1.455,-1.455 0,-0.804 0.651,-1.455 1.455,-1.455 l 26.182,0 c 0.803,10e-4 1.454,0.652 1.454,1.455 z" /><path
       inkscape:connector-curvature="0"
       id="path16"
       style="fill:#ffffff"
       d="M 87,73.727 87,65 l -64,0 0,8.727 c 0,1.607 1.303,2.909 2.909,2.909 l 58.182,0 c 1.606,0 2.909,-1.302 2.909,-2.909 z" /><path
       inkscape:connector-curvature="0"
       id="path18"
       style="fill:#cfd3d4"
       d="m 55,74.909 c -2.156,0 -3.909,-1.753 -3.909,-3.909 0,-2.155 1.754,-3.909 3.909,-3.909 2.155,0 3.909,1.753 3.909,3.909 0,2.156 -1.753,3.909 -3.909,3.909 z m 0,-5.818 c -1.053,0 -1.909,0.856 -1.909,1.909 0,1.053 0.856,1.909 1.909,1.909 1.053,0 1.909,-0.856 1.909,-1.909 0,-1.052 -0.856,-1.909 -1.909,-1.909 z" /><path
       inkscape:connector-curvature="0"
       id="path20"
       style="fill:#5b5c5f"
       d="m 23,32.909 0,32 19.724,0 L 77.633,30 25.909,30 C 24.303,30 23,31.303 23,32.909 Z" /><g
       id="g22"><path
         inkscape:connector-curvature="0"
         id="path24"
         style="fill:#ffffff"
         d="m 30.414,37.489 c 0,-1.104 0.378,-1.724 1.104,-1.724 0.727,0 1.104,0.62 1.104,1.724 0,1.109 -0.378,1.729 -1.104,1.729 -0.726,0 -1.104,-0.62 -1.104,-1.729 z m 1.749,0 c 0,-0.974 -0.237,-1.371 -0.644,-1.371 -0.402,0 -0.644,0.397 -0.644,1.371 0,0.979 0.242,1.376 0.644,1.376 0.406,-0.001 0.644,-0.398 0.644,-1.376 z m -0.645,-0.315 c 0.184,0 0.32,0.14 0.32,0.315 0,0.179 -0.136,0.32 -0.32,0.32 -0.179,0 -0.315,-0.141 -0.315,-0.32 0,-0.175 0.136,-0.315 0.315,-0.315 z" /><path
         inkscape:connector-curvature="0"
         id="path26"
         style="fill:#ffffff"
         d="m 34.408,36.312 -0.799,0.484 -0.213,-0.31 1.066,-0.664 0.392,0 0,2.979 0.683,0 0,0.359 -1.947,0 0,-0.359 0.819,0 0,-2.489 z" /><path
         inkscape:connector-curvature="0"
         id="path28"
         style="fill:#ffffff"
         d="m 41.06,36.273 0.213,0.334 -1.695,1.037 1.695,1.041 -0.233,0.325 -1.846,-1.153 0,-0.431 1.866,-1.153 z" /><path
         inkscape:connector-curvature="0"
         id="path30"
         style="fill:#ffffff"
         d="m 43.742,39.16 0,-1.564 -1.211,0 0,1.564 -0.46,0 0,-3.337 0.46,0 0,1.395 1.211,0 0,-1.395 0.46,0 0,3.337 -0.46,0 z" /><path
         inkscape:connector-curvature="0"
         id="path32"
         style="fill:#ffffff"
         d="m 46.264,36.21 0,2.95 -0.46,0 0,-2.95 -1.032,0 0,-0.387 2.538,0 -0.048,0.387 -0.998,0 z" /><path
         inkscape:connector-curvature="0"
         id="path34"
         style="fill:#ffffff"
         d="m 49.822,39.16 -0.097,-1.71 c -0.024,-0.47 -0.024,-1.012 -0.019,-1.119 l -0.015,0 -0.528,2.233 -0.441,0 -0.552,-2.233 -0.019,0 c 0,0.111 0.01,0.688 -0.01,1.119 l -0.082,1.71 -0.426,0 0.189,-3.337 0.61,0 0.514,2.228 0.019,0 0.489,-2.228 0.615,0 0.189,3.337 -0.436,0 z" /><path
         inkscape:connector-curvature="0"
         id="path36"
         style="fill:#ffffff"
         d="m 51.031,39.16 0,-3.337 0.46,0 0,2.935 1.516,0 -0.053,0.402 -1.923,0 z" /><path
         inkscape:connector-curvature="0"
         id="path38"
         style="fill:#ffffff"
         d="m 55.796,37.426 0,0.431 -1.846,1.153 -0.233,-0.325 1.695,-1.041 -1.695,-1.037 0.213,-0.334 1.866,1.153 z" /><path
         inkscape:connector-curvature="0"
         id="path40"
         style="fill:#ffffff"
         d="m 30.414,43.298 c 0,-1.104 0.378,-1.724 1.104,-1.724 0.727,0 1.104,0.62 1.104,1.724 0,1.109 -0.378,1.729 -1.104,1.729 -0.726,0 -1.104,-0.62 -1.104,-1.729 z m 1.749,0 c 0,-0.974 -0.237,-1.371 -0.644,-1.371 -0.402,0 -0.644,0.397 -0.644,1.371 0,0.979 0.242,1.376 0.644,1.376 0.406,-10e-4 0.644,-0.398 0.644,-1.376 z m -0.645,-0.315 c 0.184,0 0.32,0.14 0.32,0.315 0,0.179 -0.136,0.32 -0.32,0.32 -0.179,0 -0.315,-0.141 -0.315,-0.32 0,-0.175 0.136,-0.315 0.315,-0.315 z" /><path
         inkscape:connector-curvature="0"
         id="path42"
         style="fill:#ffffff"
         d="m 33.895,44.596 1.516,0 -0.053,0.373 -1.986,0 0,-0.354 c 1.153,-1.143 1.507,-1.604 1.507,-2.107 0,-0.359 -0.242,-0.562 -0.567,-0.562 -0.276,0 -0.465,0.102 -0.669,0.358 l -0.31,-0.218 c 0.262,-0.324 0.591,-0.514 1.003,-0.514 0.61,0 1.003,0.388 1.003,0.921 -10e-4,0.582 -0.461,1.163 -1.444,2.103 z" /><path
         inkscape:connector-curvature="0"
         id="path44"
         style="fill:#ffffff"
         d="m 41.06,42.082 0.213,0.334 -1.695,1.037 1.695,1.041 -0.233,0.325 -1.846,-1.153 0,-0.431 1.866,-1.153 z" /><path
         inkscape:connector-curvature="0"
         id="path46"
         style="fill:#ffffff"
         d="m 43.049,44.969 -0.92,0 0,-3.337 0.848,0 c 0.596,0 1.192,0.189 1.192,0.843 0,0.426 -0.3,0.649 -0.581,0.712 l 0,0.019 c 0.334,0.063 0.727,0.257 0.727,0.809 -0.002,0.731 -0.641,0.954 -1.266,0.954 z m 0.01,-2.974 -0.47,0 0,1.046 0.509,0 c 0.388,0 0.601,-0.16 0.601,-0.538 -10e-4,-0.368 -0.243,-0.508 -0.64,-0.508 z m 0.072,1.414 -0.543,0 0,1.187 0.523,0 c 0.325,0 0.717,-0.092 0.717,-0.572 10e-4,-0.489 -0.314,-0.615 -0.697,-0.615 z" /><path
         inkscape:connector-curvature="0"
         id="path48"
         style="fill:#ffffff"
         d="m 46.041,45.027 c -0.819,0 -1.24,-0.683 -1.24,-1.719 0,-1.017 0.421,-1.734 1.24,-1.734 0.819,0 1.24,0.693 1.24,1.729 0,1.017 -0.422,1.724 -1.24,1.724 z m 0,-3.076 c -0.543,0 -0.761,0.475 -0.761,1.356 0,0.881 0.233,1.342 0.761,1.342 0.543,0 0.76,-0.465 0.76,-1.347 0,-0.881 -0.218,-1.351 -0.76,-1.351 z" /><path
         inkscape:connector-curvature="0"
         id="path50"
         style="fill:#ffffff"
         d="m 48.659,44.969 -0.78,0 0,-3.337 0.727,0 c 0.79,0 1.574,0.266 1.574,1.652 0,1.394 -0.813,1.685 -1.521,1.685 z M 48.708,42 l -0.368,0 0,2.606 0.373,0 c 0.475,0 0.978,-0.242 0.978,-1.322 C 49.691,42.15 49.163,42 48.708,42 Z" /><path
         inkscape:connector-curvature="0"
         id="path52"
         style="fill:#ffffff"
         d="m 52.082,43.685 0,1.284 -0.465,0 0,-1.279 -1.124,-2.059 0.509,0 0.853,1.632 0.015,0 0.857,-1.632 0.479,0 -1.124,2.054 z" /><path
         inkscape:connector-curvature="0"
         id="path54"
         style="fill:#ffffff"
         d="m 55.796,43.235 0,0.431 -1.846,1.153 -0.233,-0.325 1.695,-1.041 -1.695,-1.037 0.213,-0.334 1.866,1.153 z" /><path
         inkscape:connector-curvature="0"
         id="path56"
         style="fill:#ffffff"
         d="m 30.414,49.107 c 0,-1.104 0.378,-1.724 1.104,-1.724 0.727,0 1.104,0.62 1.104,1.724 0,1.109 -0.378,1.729 -1.104,1.729 -0.726,0 -1.104,-0.62 -1.104,-1.729 z m 1.749,0 c 0,-0.974 -0.237,-1.371 -0.644,-1.371 -0.402,0 -0.644,0.397 -0.644,1.371 0,0.979 0.242,1.376 0.644,1.376 0.406,-10e-4 0.644,-0.398 0.644,-1.376 z m -0.645,-0.315 c 0.184,0 0.32,0.14 0.32,0.315 0,0.179 -0.136,0.32 -0.32,0.32 -0.179,0 -0.315,-0.141 -0.315,-0.32 0,-0.175 0.136,-0.315 0.315,-0.315 z" /><path
         inkscape:connector-curvature="0"
         id="path58"
         style="fill:#ffffff"
         d="m 34.292,50.836 c -0.388,0 -0.785,-0.14 -1.041,-0.45 l 0.29,-0.242 c 0.189,0.223 0.465,0.329 0.736,0.329 0.45,0 0.722,-0.252 0.722,-0.659 0,-0.465 -0.286,-0.62 -0.678,-0.62 l -0.257,0 0.053,-0.344 0.175,0 c 0.32,0 0.62,-0.179 0.62,-0.567 0,-0.354 -0.271,-0.548 -0.615,-0.548 -0.286,0 -0.484,0.102 -0.702,0.305 l -0.242,-0.266 c 0.286,-0.271 0.615,-0.393 0.969,-0.393 0.639,0 1.037,0.383 1.037,0.838 0,0.407 -0.3,0.708 -0.634,0.771 l 0,0.019 c 0.368,0.024 0.741,0.3 0.741,0.809 -0.002,0.577 -0.472,1.018 -1.174,1.018 z" /><path
         inkscape:connector-curvature="0"
         id="path60"
         style="fill:#ffffff"
         d="m 41.06,47.891 0.213,0.334 -1.695,1.037 1.695,1.041 -0.233,0.325 -1.846,-1.153 0,-0.431 1.866,-1.153 z" /><path
         inkscape:connector-curvature="0"
         id="path62"
         style="fill:#ffffff"
         d="m 43.742,50.778 0,-1.564 -1.211,0 0,1.564 -0.46,0 0,-3.338 0.46,0 0,1.395 1.211,0 0,-1.395 0.46,0 0,3.337 -0.46,0 z" /><path
         inkscape:connector-curvature="0"
         id="path64"
         style="fill:#ffffff"
         d="m 45.59,47.808 0,1.09 1.23,0 0,0.368 -1.23,0 0,1.148 1.507,0 0,0.363 -1.967,0 0,-3.337 1.928,0 -0.053,0.368 -1.415,0 z" /><path
         inkscape:connector-curvature="0"
         id="path66"
         style="fill:#ffffff"
         d="m 49.575,49.94 -1.284,0 -0.257,0.838 -0.46,0 1.08,-3.337 0.581,0 1.08,3.337 -0.484,0 -0.256,-0.838 z m -1.172,-0.373 1.061,0 -0.518,-1.71 -0.019,0 -0.524,1.71 z" /><path
         inkscape:connector-curvature="0"
         id="path68"
         style="fill:#ffffff"
         d="m 51.564,50.778 -0.78,0 0,-3.338 0.727,0 c 0.79,0 1.574,0.266 1.574,1.652 0,1.395 -0.814,1.686 -1.521,1.686 z m 0.048,-2.97 -0.368,0 0,2.606 0.373,0 c 0.475,0 0.978,-0.242 0.978,-1.322 10e-4,-1.133 -0.527,-1.284 -0.983,-1.284 z" /><path
         inkscape:connector-curvature="0"
         id="path70"
         style="fill:#ffffff"
         d="m 54.304,47.808 0,1.09 1.23,0 0,0.368 -1.23,0 0,1.148 1.507,0 0,0.363 -1.967,0 0,-3.337 1.928,0 -0.053,0.368 -1.415,0 z" /><path
         inkscape:connector-curvature="0"
         id="path72"
         style="fill:#ffffff"
         d="m 58.022,49.306 0.978,1.472 -0.547,0 -0.891,-1.414 -0.426,0 0,1.414 -0.46,0 0,-3.338 0.877,0 c 0.833,0 1.269,0.319 1.269,0.944 -0.001,0.5 -0.35,0.805 -0.8,0.922 z m -0.427,-1.507 -0.46,0 0,1.211 0.465,0 c 0.465,0 0.731,-0.174 0.731,-0.625 10e-4,-0.417 -0.237,-0.586 -0.736,-0.586 z" /><path
         inkscape:connector-curvature="0"
         id="path74"
         style="fill:#ffffff"
         d="m 61.605,49.044 0,0.431 -1.846,1.153 -0.233,-0.325 1.695,-1.041 -1.695,-1.037 0.213,-0.334 1.866,1.153 z" /><path
         inkscape:connector-curvature="0"
         id="path76"
         style="fill:#ffffff"
         d="m 30.414,54.916 c 0,-1.104 0.378,-1.724 1.104,-1.724 0.727,0 1.104,0.62 1.104,1.724 0,1.109 -0.378,1.729 -1.104,1.729 -0.726,0 -1.104,-0.62 -1.104,-1.729 z m 1.749,0 c 0,-0.974 -0.237,-1.371 -0.644,-1.371 -0.402,0 -0.644,0.397 -0.644,1.371 0,0.979 0.242,1.376 0.644,1.376 0.406,0 0.644,-0.398 0.644,-1.376 z m -0.645,-0.315 c 0.184,0 0.32,0.14 0.32,0.315 0,0.179 -0.136,0.32 -0.32,0.32 -0.179,0 -0.315,-0.141 -0.315,-0.32 0,-0.174 0.136,-0.315 0.315,-0.315 z" /><path
         inkscape:connector-curvature="0"
         id="path78"
         style="fill:#ffffff"
         d="m 35.101,55.788 0,0.799 -0.431,0 0,-0.799 -1.366,0 0,-0.315 0.978,-2.282 0.373,0.155 -0.882,2.088 0.896,0 0.044,-0.872 0.387,0 0,0.872 0.421,0 0,0.354 -0.42,0 z" /><path
         inkscape:connector-curvature="0"
         id="path80"
         style="fill:#ffffff"
         d="m 41.06,53.7 0.213,0.334 -1.695,1.037 1.695,1.041 -0.233,0.325 -1.846,-1.153 0,-0.431 1.866,-1.153 z" /><path
         inkscape:connector-curvature="0"
         id="path82"
         style="fill:#ffffff"
         d="m 42.284,57.091 -0.359,-0.16 2.068,-4.267 0.354,0.17 -2.063,4.257 z" /><path
         inkscape:connector-curvature="0"
         id="path84"
         style="fill:#ffffff"
         d="m 46.646,56.587 0,-1.564 -1.211,0 0,1.564 -0.46,0 0,-3.337 0.46,0 0,1.395 1.211,0 0,-1.395 0.46,0 0,3.337 -0.46,0 z" /><path
         inkscape:connector-curvature="0"
         id="path86"
         style="fill:#ffffff"
         d="m 48.495,53.618 0,1.09 1.23,0 0,0.368 -1.23,0 0,1.148 1.507,0 0,0.363 -1.967,0 0,-3.337 1.928,0 -0.053,0.368 -1.415,0 z" /><path
         inkscape:connector-curvature="0"
         id="path88"
         style="fill:#ffffff"
         d="m 52.479,55.749 -1.284,0 -0.257,0.838 -0.46,0 1.08,-3.337 0.581,0 1.08,3.337 -0.484,0 -0.256,-0.838 z m -1.172,-0.373 1.061,0 -0.518,-1.71 -0.02,0 -0.523,1.71 z" /><path
         inkscape:connector-curvature="0"
         id="path90"
         style="fill:#ffffff"
         d="m 54.468,56.587 -0.78,0 0,-3.337 0.727,0 c 0.79,0 1.574,0.266 1.574,1.652 0,1.395 -0.813,1.685 -1.521,1.685 z m 0.049,-2.969 -0.368,0 0,2.606 0.373,0 c 0.475,0 0.978,-0.242 0.978,-1.322 0,-1.134 -0.528,-1.284 -0.983,-1.284 z" /><path
         inkscape:connector-curvature="0"
         id="path92"
         style="fill:#ffffff"
         d="m 57.208,53.618 0,1.09 1.23,0 0,0.368 -1.23,0 0,1.148 1.507,0 0,0.363 -1.967,0 0,-3.337 1.928,0 -0.053,0.368 -1.415,0 z" /><path
         inkscape:connector-curvature="0"
         id="path94"
         style="fill:#ffffff"
         d="m 60.926,55.114 0.979,1.473 -0.547,0 -0.891,-1.414 -0.427,0 0,1.414 -0.46,0 0,-3.337 0.877,0 c 0.833,0 1.269,0.319 1.269,0.944 0,0.499 -0.349,0.804 -0.8,0.92 z m -0.426,-1.506 -0.46,0 0,1.211 0.465,0 c 0.465,0 0.731,-0.174 0.731,-0.625 0,-0.416 -0.237,-0.586 -0.736,-0.586 z" /><path
         inkscape:connector-curvature="0"
         id="path96"
         style="fill:#ffffff"
         d="m 64.509,54.853 0,0.431 -1.846,1.153 -0.233,-0.325 1.695,-1.041 -1.695,-1.037 0.213,-0.334 1.866,1.153 z" /></g></g></svg>