<?xml version="1.0" encoding="UTF-8" standalone="no"?>
<svg
   xmlns:dc="http://purl.org/dc/elements/1.1/"
   xmlns:cc="http://creativecommons.org/ns#"
   xmlns:rdf="http://www.w3.org/1999/02/22-rdf-syntax-ns#"
   xmlns:svg="http://www.w3.org/2000/svg"
   xmlns="http://www.w3.org/2000/svg"
   xmlns:sodipodi="http://sodipodi.sourceforge.net/DTD/sodipodi-0.dtd"
   xmlns:inkscape="http://www.inkscape.org/namespaces/inkscape"
   enable-background="new 0 0 200 200"
   height="200px"
   id="Layer_1"
   version="1.0"
   viewBox="0 0 200 200"
   width="200px"
   xml:space="preserve"
   inkscape:version="0.91 r13725"
   sodipodi:docname="design.svg"><metadata
     id="metadata34"><rdf:RDF><cc:Work
         rdf:about=""><dc:format>image/svg+xml</dc:format><dc:type
           rdf:resource="http://purl.org/dc/dcmitype/StillImage" /></cc:Work></rdf:RDF></metadata><defs
     id="defs32" /><sodipodi:namedview
     pagecolor="#ffffff"
     bordercolor="#666666"
     borderopacity="1"
     objecttolerance="10"
     gridtolerance="10"
     guidetolerance="10"
     inkscape:pageopacity="0"
     inkscape:pageshadow="2"
     inkscape:window-width="1366"
     inkscape:window-height="705"
     id="namedview30"
     showgrid="false"
     inkscape:zoom="2.4429687"
     inkscape:cx="33.073233"
     inkscape:cy="100"
     inkscape:window-x="0"
     inkscape:window-y="0"
     inkscape:window-maximized="1"
     inkscape:current-layer="Layer_1" /><g
     id="New_Symbol" /><g
     id="New_Symbol_1_" /><g
     id="New_Symbol_1" /><g
     id="New_Symbol_9_2_" /><g
     id="New_Symbol_7" /><g
     id="New_Symbol_9_1_" /><g
     id="New_Symbol_9" /><g
     id="Nuevo_símbolo" /><g
     id="New_Symbol_10" /><g
     id="New_Symbol_12" /><g
     id="New_Symbol_14" /><g
     id="New_Symbol_15" /><g
     id="New_Symbol_16" /><g
     id="New_Symbol_17_1_" /><g
     id="New_Symbol_18" /><g
     id="New_Symbol_19" /><g
     id="New_Symbol_17" /><g
     id="g20"
     style="fill:#5c6269;fill-opacity:1"><path
       d="M31,123h138.5c1.3,0,2.5-1.1,2.5-2.4V31h-0.1c0-1-1.1-2-2.4-2H31c-1.3,0-2,0.8-2,2.1v89.4C29,121.9,29.7,123,31,123z    M31,31.1c0-0.2-0.2-0.1,0-0.1h138.5c0.2,0,0.5-0.1,0.5,0.1v89.4l-0.1,0c0,0.2-0.2,0.4-0.4,0.4H31c-0.2,0,0-0.2,0-0.4V31.1z"
       id="path22"
       style="fill:#5c6269;fill-opacity:1" /><path
       d="M195.9,155.1l-0.1-0.4L170.9,126H100H29.1L4.2,154.7L4.1,155c-0.1,0.3-1.7,7.8,2,12.4c1.9,2.3,4.7,3.6,8.4,3.6H100h85.5   c3.7,0,6.6-1.2,8.4-3.5C197.6,162.9,196,155.4,195.9,155.1z M30,128h70h70l23.9,27.5c-0.1,0.6-0.3,1.4-0.7,1.7   c-1.4,1.4-4.7,1.8-5.9,1.8H99.8l-87.1-0.2c-1.1,0.1-4.4-0.2-5.8-1.6c-0.4-0.4-0.6-1.1-0.7-1.6L30,128z M192.3,166.2   c-1.5,1.8-3.8,2.8-6.8,2.8H100H14.5c-3.1,0-5.4-0.9-6.8-2.8c-1.7-2.1-2-5.2-2-7.5c1.9,1.6,5.1,2,6.4,2c0.3,0,0.5,0.2,0.6,0.2h87.5   l87-0.2c0,0,0.3-0.1,0.6-0.1c1.3,0,4.5-0.2,6.4-1.8C194.4,161.1,194,164.1,192.3,166.2z"
       id="path24"
       style="fill:#5c6269;fill-opacity:1" /><path
       d="M150.7,136H49.2l-9.7,12.8l121.1,0L150.7,136z M50.2,138h99.5l6.8,8.8l-113,0L50.2,138z"
       id="path26"
       style="fill:#5c6269;fill-opacity:1" /><path
       d="M113.8,115h15.7h1.2H158V90.8c1-0.1,1.7-0.4,2.3-1.1c1.5-1.5,1.5-3.8,0-5.3c-0.6-0.6-1.4-1-2.4-1V71.2l0.4,0.4   c-0.3,0.8-0.1,1.8,0.5,2.5c0.4,0.5,1,0.7,1.7,0.7c0.6,0,1.2-0.2,1.7-0.7c0.9-0.9,0.9-2.4,0-3.4c-0.6-0.6-1.6-0.8-2.5-0.5l-1.8-1.8   V43h-25.9l-3.1-3.3c0.1-0.3,0.2-0.6,0.2-0.9c0-0.6-0.2-1.3-0.7-1.7c-0.9-0.9-2.5-0.9-3.4,0c-0.4,0.4-0.7,1-0.7,1.7s0.2,1.2,0.7,1.7   c0.4,0.5,1,0.7,1.7,0.7c0.3,0,0.6,0.2,0.8,0.1l1.7,1.9H117c-0.1-1-0.5-1.6-1-2.1c-1.4-1.4-3.9-1.3-5.3,0.1c-0.5,0.5-0.9,1-1,2H42   v72h70.7H113.8z M159.6,71.5c0.3-0.3,0.6-0.4,1-0.4c0.4,0,0.7,0.1,1,0.4c0.5,0.5,0.5,1.4,0,2c-0.5,0.5-1.4,0.5-2,0   C159.1,72.9,159.1,72,159.6,71.5z M127.8,39.6c-0.5,0.5-1.4,0.5-2,0c-0.3-0.3-0.4-0.6-0.4-1s0.1-0.7,0.4-1c0.3-0.3,0.6-0.4,1-0.4   s0.7,0.1,1,0.4c0.3,0.3,0.4,0.6,0.4,1S128,39.4,127.8,39.6z M130,113.9c-9-0.3-15.8-6.9-16.1-15.9h9.2h1.2h1.4h1.2h3.2V113.9z    M113.9,97c0.3-5,4.1-8.8,9.1-9.1v6.4v0.2V97H113.9z M129.6,96.7v0.4h-0.4C129.3,97,129.4,96.8,129.6,96.7z M127,97v-2.5V94h2.5   C129.3,96,128,96.8,127,97z M125.6,93H124v-5.1c3,0.3,5.2,3.1,5.5,5.1H125.6z M124.2,94.5v-0.2h1.4v0.2H124.2z M125.6,95.7V97   c-0.6-0.2-1.1-0.7-1.3-1.3H125.6z M130,89.9c-1-0.8-1.7-0.9-2.5-1.9h2.5V89.9z M157,114h-18.9c9-3,15.9-9.8,18.9-18.8V114z    M131,113.9V98.2v-1.2v-2.8v-1.2V88h23c0.1,1,0.5,1.2,1,1.8c0.4,0.4,1.1,0.7,1.7,0.9C155.1,103.6,144,113.6,131,113.9z M157,77.2   c-1-4.1-2.5-8-4.5-11.6l4.5,4.5V77.2z M157,44v23.2l-10-9.9c0.8-1.4,0.6-3.3-0.6-4.5c-1.2-1.2-3.1-1.2-4.5-0.4l-8.6-8.4H157z    M130.5,44l4.5,4.5c-3.6-2-7.5-3.5-11.6-4.5H130.5z M114,47c1-0.1,1.5-0.5,2.1-1c0.6-0.6,0.9-1.3,1-2.1c8,0.7,15.4,3.6,21.6,8.1   l1.7,1.8c-0.3,0.6-0.5,1.2-0.5,1.8c0,1,0.4,1.9,1.1,2.6c0.7,0.7,1.6,1.1,2.6,1.1c0.7,0,1.3-0.2,1.8-0.5l3,3.1   c4.5,6.2,7.4,13.6,8.1,21.7c-0.6,0.2-1.1,0.6-1.6,1.1c-0.6,0.6-1,1.4-1.1,2.4h-23.3h-1.2h-5.3h-1.2H114V47z M114,88h4.8   c-2.1,1-3.8,2.6-4.8,4.8V88z M114,103.8c2,4.6,5.3,8.2,9.9,10.2H114V103.8z M43,43.8L42.7,44h57.9C71,49,48,72.3,43,101.8V43.8z    M109.7,43.9c0.1,0.8,0.6,1.5,1.2,2.1c0.5,0.5,1.1,0.9,2.1,1v39.7v1.2v9.2v1.2V114H42.5C42.8,77,72.5,45.7,109.7,43.9z"
       id="path28"
       style="fill:#5c6269;fill-opacity:1" /></g></svg>