<?xml version="1.0" encoding="UTF-8" standalone="no"?>
<svg
   xmlns:dc="http://purl.org/dc/elements/1.1/"
   xmlns:cc="http://creativecommons.org/ns#"
   xmlns:rdf="http://www.w3.org/1999/02/22-rdf-syntax-ns#"
   xmlns:svg="http://www.w3.org/2000/svg"
   xmlns="http://www.w3.org/2000/svg"
   xmlns:sodipodi="http://sodipodi.sourceforge.net/DTD/sodipodi-0.dtd"
   xmlns:inkscape="http://www.inkscape.org/namespaces/inkscape"
   enable-background="new 0 0 200 200"
   height="200px"
   id="Layer_1"
   version="1.1"
   viewBox="0 0 200 200"
   width="200px"
   xml:space="preserve"
   inkscape:version="0.91 r13725"
   sodipodi:docname="idea.svg"><metadata
     id="metadata31"><rdf:RDF><cc:Work
         rdf:about=""><dc:format>image/svg+xml</dc:format><dc:type
           rdf:resource="http://purl.org/dc/dcmitype/StillImage" /><dc:title></dc:title></cc:Work></rdf:RDF></metadata><defs
     id="defs29" /><sodipodi:namedview
     pagecolor="#0000ff"
     bordercolor="#666666"
     borderopacity="1"
     objecttolerance="10"
     gridtolerance="10"
     guidetolerance="10"
     inkscape:pageopacity="0"
     inkscape:pageshadow="2"
     inkscape:window-width="1366"
     inkscape:window-height="703"
     id="namedview27"
     showgrid="false"
     inkscape:zoom="1.18"
     inkscape:cx="100"
     inkscape:cy="100"
     inkscape:window-x="0"
     inkscape:window-y="0"
     inkscape:window-maximized="1"
     inkscape:current-layer="Layer_1" /><path
     style="fill:#ffffff"
     inkscape:connector-curvature="0"
     id="path5"
     d="m 126.304,172.234 c 0,-2.143 -1.751,-3.892 -3.892,-3.892 l -44.828,0 c -2.139,0 -3.89,1.749 -3.89,3.892 l 0,0 c 0,2.138 1.75,3.892 3.89,3.892 l 44.828,0 c 2.141,0 3.892,-1.754 3.892,-3.892 l 0,0 z" /><path
     style="fill:#ffffff"
     inkscape:connector-curvature="0"
     id="path7"
     d="m 100,33.63 c 2.141,0 3.892,-1.749 3.892,-3.892 l 0,-25.055 c 0,-2.142 -1.751,-3.895 -3.892,-3.895 l 0,0 c -2.141,0 -3.892,1.752 -3.892,3.895 l 0,25.056 c 0,2.142 1.751,3.891 3.892,3.891 l 0,0 z" /><path
     style="fill:#ffffff"
     inkscape:connector-curvature="0"
     id="path9"
     d="m 133.58,42.628 c 1.855,1.068 4.244,0.43 5.316,-1.425 l 12.529,-21.699 c 1.07,-1.855 0.428,-4.246 -1.426,-5.315 l 0,0 c -1.852,-1.07 -4.245,-0.43 -5.315,1.425 l -12.528,21.697 c -1.07,1.856 -0.429,4.249 1.424,5.317 l 0,0 z" /><path
     style="fill:#ffffff"
     inkscape:connector-curvature="0"
     id="path11"
     d="m 158.162,67.214 c 1.068,1.85 3.463,2.494 5.316,1.425 l 21.701,-12.534 c 1.854,-1.068 2.495,-3.459 1.425,-5.312 l 0,0 c -1.07,-1.855 -3.463,-2.497 -5.316,-1.425 l -21.699,12.529 c -1.857,1.068 -2.497,3.46 -1.427,5.317 l 0,0 z" /><path
     style="fill:#ffffff"
     inkscape:connector-curvature="0"
     id="path13"
     d="m 167.16,100.792 c 0,2.143 1.754,3.895 3.891,3.892 l 25.058,0 c 2.141,0 3.892,-1.749 3.892,-3.892 l 0,0 c 0,-2.137 -1.751,-3.89 -3.892,-3.89 l -25.058,0 c -2.144,0 -3.891,1.753 -3.891,3.89 l 0,0 z" /><path
     style="fill:#ffffff"
     inkscape:connector-curvature="0"
     id="path15"
     d="m 66.418,42.628 c 1.855,-1.068 2.496,-3.461 1.427,-5.317 L 55.315,15.609 c -1.072,-1.85 -3.461,-2.49 -5.317,-1.42 l 0,0 c -1.853,1.069 -2.492,3.46 -1.422,5.315 l 12.529,21.699 c 1.07,1.855 3.462,2.493 5.313,1.425 l 0,0 z" /><path
     style="fill:#ffffff"
     inkscape:connector-curvature="0"
     id="path17"
     d="m 41.836,67.214 c 1.074,-1.857 0.432,-4.249 -1.422,-5.317 L 18.712,49.365 C 16.86,48.297 14.467,48.939 13.394,50.79 l 0,0 c -1.068,1.855 -0.424,4.243 1.427,5.315 l 21.702,12.529 c 1.855,1.069 4.243,0.429 5.313,-1.42 l 0,0 z" /><path
     style="fill:#ffffff"
     inkscape:connector-curvature="0"
     id="path19"
     d="m 32.84,100.792 c 0,-2.143 -1.751,-3.89 -3.888,-3.895 l -25.06,0 C 1.751,96.902 0,98.649 0,100.792 l 0,0 c 0,2.139 1.751,3.892 3.892,3.892 l 25.061,0 c 2.136,0 3.887,-1.753 3.887,-3.892 l 0,0 z" /><path
     style="fill:#ffffff"
     inkscape:connector-curvature="0"
     id="path21"
     d="m 126.304,182.92 c 0,-2.142 -1.751,-3.891 -3.892,-3.891 l -44.828,0 c -2.139,0 -3.89,1.749 -3.89,3.891 l 0,0 c 0,2.141 1.75,3.89 3.89,3.89 l 44.828,0 c 2.141,0 3.892,-1.749 3.892,-3.89 l 0,0 z" /><path
     style="fill:#ffffff"
     inkscape:connector-curvature="0"
     id="path23"
     d="m 86.857,189.715 c 1.827,5.517 7.017,9.497 13.143,9.497 6.126,0 11.314,-3.98 13.14,-9.497 l -26.283,0 z" /><path
     style="fill:#ffffff"
     inkscape:connector-curvature="0"
     id="path25"
     d="m 100,46.002 c -30.258,0 -54.788,24.532 -54.788,54.79 0,16.082 6.935,30.557 17.981,40.579 0.023,0.013 1.648,1.381 2.438,2.067 5.193,4.51 8.068,11.468 8.068,18.889 l 52.597,0 c 0,-7.421 2.878,-14.379 8.068,-18.889 0.791,-0.687 2.417,-2.055 2.441,-2.067 11.044,-10.022 17.979,-24.497 17.979,-40.579 C 154.786,70.534 130.258,46.002 100,46.002 Z m 3.808,80.683 0,4.897 c 0,0.955 -0.365,1.909 -1.093,2.642 -0.73,0.729 -1.687,1.093 -2.642,1.093 l -0.825,0 c -0.955,0 -1.911,-0.363 -2.638,-1.093 -0.729,-0.732 -1.097,-1.687 -1.097,-2.642 l 0,-4.301 c -5.668,-0.254 -11.169,-1.776 -14.382,-3.641 l 2.536,-9.902 c 3.556,1.949 8.547,3.726 14.05,3.726 4.82,0 8.122,-1.861 8.122,-5.25 0,-3.215 -2.706,-5.242 -8.972,-7.358 -9.053,-3.047 -15.231,-7.278 -15.231,-15.489 0,-7.447 5.249,-13.288 14.302,-15.064 l 0,-4.304 c 0,-0.955 0.364,-1.913 1.093,-2.638 0.731,-0.729 1.685,-1.093 2.642,-1.093 l 0.823,0 c 0.955,0 1.909,0.364 2.642,1.093 0.729,0.726 1.093,1.683 1.093,2.638 l 0,3.714 c 5.669,0.254 9.479,1.438 12.271,2.793 l -2.454,9.563 c -2.199,-0.933 -6.091,-2.878 -12.186,-2.878 -5.503,0 -7.278,2.371 -7.278,4.739 0,2.792 2.962,4.57 10.155,7.276 10.071,3.555 14.131,8.208 14.131,15.825 0,7.532 -5.332,13.965 -15.062,15.654 z" /><rect
     style="color:#000000;clip-rule:nonzero;display:inline;overflow:visible;visibility:visible;opacity:1;isolation:auto;mix-blend-mode:normal;color-interpolation:sRGB;color-interpolation-filters:linearRGB;solid-color:#000000;solid-opacity:1;fill:#ffffff;fill-opacity:1;fill-rule:nonzero;stroke:none;stroke-width:3.5;stroke-linecap:round;stroke-linejoin:miter;stroke-miterlimit:4;stroke-dasharray:none;stroke-dashoffset:0;stroke-opacity:1;color-rendering:auto;image-rendering:auto;shape-rendering:auto;text-rendering:auto;enable-background:accumulate"
     id="rect3370"
     width="61.816952"
     height="82.2034"
     x="69.09153"
     y="64.406784" /></svg>