<?xml version="1.0" encoding="UTF-8" standalone="no"?>
<svg
   xmlns:dc="http://purl.org/dc/elements/1.1/"
   xmlns:cc="http://creativecommons.org/ns#"
   xmlns:rdf="http://www.w3.org/1999/02/22-rdf-syntax-ns#"
   xmlns:svg="http://www.w3.org/2000/svg"
   xmlns="http://www.w3.org/2000/svg"
   xmlns:sodipodi="http://sodipodi.sourceforge.net/DTD/sodipodi-0.dtd"
   xmlns:inkscape="http://www.inkscape.org/namespaces/inkscape"
   height="110px"
   style="enable-background:new 0 0 110 110;"
   version="1.0"
   viewBox="0 0 110 110"
   width="110px"
   xml:space="preserve"
   id="svg2"
   inkscape:version="0.91 r13725"
   sodipodi:docname="if_Makeup_379450.svg"><metadata
     id="metadata90"><rdf:RDF><cc:Work
         rdf:about=""><dc:format>image/svg+xml</dc:format><dc:type
           rdf:resource="http://purl.org/dc/dcmitype/StillImage" /></cc:Work></rdf:RDF></metadata><defs
     id="defs88" /><sodipodi:namedview
     pagecolor="#ffffff"
     bordercolor="#666666"
     borderopacity="1"
     objecttolerance="10"
     gridtolerance="10"
     guidetolerance="10"
     inkscape:pageopacity="0"
     inkscape:pageshadow="2"
     inkscape:window-width="1366"
     inkscape:window-height="703"
     id="namedview86"
     showgrid="false"
     inkscape:zoom="2.1454545"
     inkscape:cx="55"
     inkscape:cy="55"
     inkscape:window-x="0"
     inkscape:window-y="0"
     inkscape:window-maximized="1"
     inkscape:current-layer="svg2" /><g
     id="Artboard" /><circle
     id="circle6"
     style="fill:#d32525;fill-opacity:1"
     r="55"
     cy="55"
     cx="55" /><g
     id="g8"><g
       id="g10"><path
         inkscape:connector-curvature="0"
         id="path12"
         style="fill:#f0f1f1"
         d="M 81.937,24.303 C 81.205,23.507 80.166,23 79,23 l -48,0 c -2.209,0 -4,1.791 -4,4 l 0,56 c 0,2.209 1.791,4 4,4 l 48,0 c 2.209,0 4,-1.791 4,-4 l 0,-56 c 0,-1.043 -0.409,-1.985 -1.063,-2.697 z" /></g><g
       id="g14"><path
         inkscape:connector-curvature="0"
         id="path16"
         style="fill:#ffffff"
         d="m 31,29 c 0,-1.104 0.895,-2 2,-2 l 12,0 c 1.105,0 2,0.896 2,2 l 0,30.239 4.436,-4.436 C 51.179,54.623 51,54.338 51,54 l 0,-10 c 0,-0.552 0.448,-1 1,-1 l 10,0 c 0.338,0 0.622,0.179 0.803,0.436 l 4.632,-4.632 C 67.179,38.623 67,38.338 67,38 l 0,-10 c 0,-0.552 0.448,-1 1,-1 l 10,0 c 0.338,0 0.622,0.179 0.803,0.436 l 3.133,-3.133 C 81.205,23.507 80.166,23 79,23 l -48,0 c -2.209,0 -4,1.791 -4,4 l 0,52.239 4,-4 L 31,29 Z m 20,-1 c 0,-0.552 0.448,-1 1,-1 l 10,0 c 0.552,0 1,0.448 1,1 l 0,10 c 0,0.552 -0.448,1 -1,1 l -10,0 c -0.552,0 -1,-0.448 -1,-1 l 0,-10 z" /></g><g
       id="g18"><path
         inkscape:connector-curvature="0"
         id="path20"
         style="fill:#f4d0a1"
         d="m 45,27 -12,0 c -1.105,0 -2,0.896 -2,2 L 31,75.239 31,81 c 0,1.104 0.895,2 2,2 l 12,0 c 1.105,0 2,-0.896 2,-2 L 47,59.239 47,29 c 0,-1.104 -0.895,-2 -2,-2 z" /></g><g
       id="g22"><path
         inkscape:connector-curvature="0"
         id="path24"
         style="fill:#f8e1c2"
         d="m 45,27 -12,0 c -1.105,0 -2,0.896 -2,2 l 0,46.239 16,-16 L 47,29 c 0,-1.104 -0.895,-2 -2,-2 z" /></g><g
       id="g26"><path
         inkscape:connector-curvature="0"
         id="path28"
         style="fill:#f79392"
         d="m 52,39 10,0 c 0.552,0 1,-0.448 1,-1 l 0,-10 c 0,-0.552 -0.448,-1 -1,-1 l -10,0 c -0.552,0 -1,0.448 -1,1 l 0,10 c 0,0.552 0.448,1 1,1 z" /></g><g
       id="g30"><path
         inkscape:connector-curvature="0"
         id="path32"
         style="fill:#facb1b"
         d="M 78.803,27.436 C 78.622,27.179 78.338,27 78,27 l -10,0 c -0.552,0 -1,0.448 -1,1 l 0,10 c 0,0.338 0.179,0.623 0.436,0.803 C 67.598,38.918 67.786,39 68,39 l 10,0 c 0.552,0 1,-0.448 1,-1 l 0,-10 c 0,-0.214 -0.082,-0.401 -0.197,-0.564 z" /></g><g
       id="g34"><path
         inkscape:connector-curvature="0"
         id="path36"
         style="fill:#fbe158"
         d="m 78,27 -10,0 c -0.552,0 -1,0.448 -1,1 l 0,10 c 0,0.338 0.179,0.623 0.436,0.803 L 78.804,27.435 C 78.622,27.179 78.338,27 78,27 Z" /></g><g
       id="g38"><path
         inkscape:connector-curvature="0"
         id="path40"
         style="fill:#12b2a0"
         d="M 62.803,43.436 C 62.622,43.179 62.338,43 62,43 l -10,0 c -0.552,0 -1,0.448 -1,1 l 0,10 c 0,0.338 0.179,0.623 0.436,0.803 C 51.598,54.918 51.786,55 52,55 l 10,0 c 0.552,0 1,-0.448 1,-1 l 0,-10 c 0,-0.214 -0.082,-0.401 -0.197,-0.564 z" /></g><g
       id="g42"><path
         inkscape:connector-curvature="0"
         id="path44"
         style="fill:#47c4b7"
         d="m 62,43 -10,0 c -0.552,0 -1,0.448 -1,1 l 0,10 c 0,0.338 0.179,0.623 0.436,0.803 L 62.804,43.435 C 62.622,43.179 62.338,43 62,43 Z" /></g><g
       id="g46"><path
         inkscape:connector-curvature="0"
         id="path48"
         style="fill:#84462d"
         d="m 39,43 -4,0 0,4 1.876,30.024 C 36.946,78.135 37.867,79 38.98,79 l 0.02,0 0.02,0 c 1.113,0 2.034,-0.865 2.104,-1.976 L 43,47 l 0,-4 -4,0 z" /></g><g
       id="g50"><path
         inkscape:connector-curvature="0"
         id="path52"
         style="fill:#9c6144"
         d="m 35,43 0,4 1.876,30.024 C 36.946,78.135 37.867,79 38.98,79 l 0.02,0 0,-36 -4,0 z" /></g><g
       id="g54"><path
         inkscape:connector-curvature="0"
         id="path56"
         style="fill:#47c4b7"
         d="m 79,54 c 0,0.552 -0.448,1 -1,1 l -10,0 c -0.552,0 -1,-0.448 -1,-1 l 0,-10 c 0,-0.552 0.448,-1 1,-1 l 10,0 c 0.552,0 1,0.448 1,1 l 0,10 z" /></g><g
       id="g58"><path
         inkscape:connector-curvature="0"
         id="path60"
         style="fill:#40c9e7"
         d="m 63,70 c 0,0.552 -0.448,1 -1,1 l -10,0 c -0.552,0 -1,-0.448 -1,-1 l 0,-10 c 0,-0.552 0.448,-1 1,-1 l 10,0 c 0.552,0 1,0.448 1,1 l 0,10 z" /></g><g
       id="g62"><path
         inkscape:connector-curvature="0"
         id="path64"
         style="fill:#40c9e7"
         d="m 79,70 c 0,0.552 -0.448,1 -1,1 l -10,0 c -0.552,0 -1,-0.448 -1,-1 l 0,-10 c 0,-0.552 0.448,-1 1,-1 l 10,0 c 0.552,0 1,0.448 1,1 l 0,10 z" /></g><g
       id="g66"><path
         inkscape:connector-curvature="0"
         id="path68"
         style="fill:#f4d0a1"
         d="m 79,82 c 0,0.552 -0.448,1 -1,1 l -26,0 c -0.552,0 -1,-0.448 -1,-1 l 0,-6 c 0,-0.552 0.448,-1 1,-1 l 26,0 c 0.552,0 1,0.448 1,1 l 0,6 z" /></g><g
       id="g70"><path
         inkscape:connector-curvature="0"
         id="path72"
         style="fill:#3e3e3f"
         d="m 39,30 0,0 c 0,0 -5,5.687 -5,9 0,1.851 0.713,3.175 1.811,4 L 39,43 42.189,43 C 43.287,42.175 44,40.851 44,39 44,35.687 39.001,30.001 39,30 Z" /></g><g
       id="g74"><path
         inkscape:connector-curvature="0"
         id="path76"
         style="fill:#5b5c5f"
         d="m 34,39 c 0,1.851 0.713,3.175 1.811,4 l 3.189,0 0,-13 0,0 c 0,0 -5,5.687 -5,9 z" /></g><g
       id="g78"><polygon
         id="polygon80"
         style="fill:#f3b607"
         points="35,47 39,47 43,47 43,43 39,43 35,43 " /></g><g
       id="g82"><polygon
         id="polygon84"
         style="fill:#facb1b"
         points="35,47 39,47 39,43 35.811,43 35,43 " /></g></g></svg>