<?xml version="1.0" encoding="UTF-8" standalone="no"?>
<svg
   xmlns:dc="http://purl.org/dc/elements/1.1/"
   xmlns:cc="http://creativecommons.org/ns#"
   xmlns:rdf="http://www.w3.org/1999/02/22-rdf-syntax-ns#"
   xmlns:svg="http://www.w3.org/2000/svg"
   xmlns="http://www.w3.org/2000/svg"
   xmlns:sodipodi="http://sodipodi.sourceforge.net/DTD/sodipodi-0.dtd"
   xmlns:inkscape="http://www.inkscape.org/namespaces/inkscape"
   enable-background="new 0 0 64 64"
   height="64px"
   version="1.1"
   viewBox="0 0 64 64"
   width="64px"
   xml:space="preserve"
   id="svg2"
   inkscape:version="0.91 r13725"
   sodipodi:docname="person.svg"><metadata
     id="metadata26"><rdf:RDF><cc:Work
         rdf:about=""><dc:format>image/svg+xml</dc:format><dc:type
           rdf:resource="http://purl.org/dc/dcmitype/StillImage" /></cc:Work></rdf:RDF></metadata><defs
     id="defs24" /><sodipodi:namedview
     pagecolor="#ffffff"
     bordercolor="#666666"
     borderopacity="1"
     objecttolerance="10"
     gridtolerance="10"
     guidetolerance="10"
     inkscape:pageopacity="0"
     inkscape:pageshadow="2"
     inkscape:window-width="1366"
     inkscape:window-height="703"
     id="namedview22"
     showgrid="false"
     inkscape:zoom="3.6875"
     inkscape:cx="-56.135594"
     inkscape:cy="32"
     inkscape:window-x="0"
     inkscape:window-y="0"
     inkscape:window-maximized="1"
     inkscape:current-layer="svg2" /><g
     id="Layer_1"><g
       id="g5"><circle
         cx="32"
         cy="32"
         fill="#4F5D73"
         r="32"
         id="circle7"
         style="fill:#004c8b;fill-opacity:1" /></g><g
       opacity="0.2"
       id="g9"><g
         id="g11"><path
           d="M43.905,47.543c-3.821-1.66-5.217-4.242-5.643-6.469c2.752-2.215,4.943-5.756,6.148-9.573     c1.239-1.579,1.96-3.226,1.96-4.62c0-0.955-0.347-1.646-0.955-2.158c-0.203-8.106-5.942-14.613-13.039-14.714     C32.322,10.009,32.268,10,32.213,10c-0.022,0-0.043,0.004-0.065,0.004c-7.052,0.039-12.783,6.41-13.125,14.409     c-0.884,0.528-1.394,1.305-1.394,2.469c0,1.641,0.992,3.63,2.663,5.448c1.187,3.327,3.118,6.38,5.5,8.438     c-0.354,2.292-1.699,5.039-5.697,6.776c-2.159,0.938-6.105,1.781-7.808,2.649c4.362,4.769,12.624,7.769,19.589,7.805l0.099,0.003     C31.983,57.999,31.992,58,32,58c7.014,0,15.325-3.01,19.713-7.808C50.01,49.324,46.063,48.481,43.905,47.543z"
           fill="#231F20"
           id="path13" /></g></g><g
       id="g15"><g
         id="g17"><path
           d="M43.905,45.543c-3.821-1.66-5.217-4.242-5.643-6.469c2.752-2.215,4.943-5.756,6.148-9.573     c1.239-1.579,1.96-3.226,1.96-4.62c0-0.955-0.347-1.646-0.955-2.158C45.213,14.618,39.474,8.11,32.378,8.01     C32.322,8.009,32.268,8,32.213,8c-0.022,0-0.043,0.004-0.065,0.004c-7.052,0.039-12.783,6.41-13.125,14.409     c-0.884,0.528-1.394,1.305-1.394,2.469c0,1.641,0.992,3.63,2.663,5.448c1.187,3.327,3.118,6.38,5.5,8.438     c-0.354,2.292-1.699,5.039-5.697,6.776c-2.159,0.938-6.105,1.781-7.808,2.649c4.362,4.769,12.624,7.769,19.589,7.805l0.099,0.003     C31.983,55.999,31.992,56,32,56c7.014,0,15.325-3.01,19.713-7.808C50.01,47.324,46.063,46.481,43.905,45.543z"
           fill="#FFFFFF"
           id="path19" /></g></g></g><g
     id="Layer_2" /></svg>