<?xml version="1.0" encoding="UTF-8" standalone="no"?>
<svg
   xmlns:dc="http://purl.org/dc/elements/1.1/"
   xmlns:cc="http://creativecommons.org/ns#"
   xmlns:rdf="http://www.w3.org/1999/02/22-rdf-syntax-ns#"
   xmlns:svg="http://www.w3.org/2000/svg"
   xmlns="http://www.w3.org/2000/svg"
   xmlns:sodipodi="http://sodipodi.sourceforge.net/DTD/sodipodi-0.dtd"
   xmlns:inkscape="http://www.inkscape.org/namespaces/inkscape"
   height="110px"
   style="enable-background:new 0 0 110 110;"
   version="1.0"
   viewBox="0 0 110 110"
   width="110px"
   xml:space="preserve"
   id="svg2"
   inkscape:version="0.91 r13725"
   sodipodi:docname="smartphone.svg"><metadata
     id="metadata52"><rdf:RDF><cc:Work
         rdf:about=""><dc:format>image/svg+xml</dc:format><dc:type
           rdf:resource="http://purl.org/dc/dcmitype/StillImage" /></cc:Work></rdf:RDF></metadata><defs
     id="defs50" /><sodipodi:namedview
     pagecolor="#ffffff"
     bordercolor="#666666"
     borderopacity="1"
     objecttolerance="10"
     gridtolerance="10"
     guidetolerance="10"
     inkscape:pageopacity="0"
     inkscape:pageshadow="2"
     inkscape:window-width="1366"
     inkscape:window-height="703"
     id="namedview48"
     showgrid="false"
     inkscape:zoom="2.1454545"
     inkscape:cx="-21.207628"
     inkscape:cy="54.999999"
     inkscape:window-x="0"
     inkscape:window-y="0"
     inkscape:window-maximized="1"
     inkscape:current-layer="svg2" /><g
     id="Artboard" /><g
     id="Multicolor"><circle
       cx="55"
       cy="55"
       r="55"
       style="fill:#3245be;fill-opacity:1"
       id="circle6" /><g
       id="g8"><path
         d="M79,27c0-2.209-1.791-4-4-4H35c-2.209,0-4,1.791-4,4v56c0,2.209,1.791,4,4,4h40    c2.209,0,4-1.791,4-4V27z"
         style="fill:#FFFFFF;"
         id="path10" /><rect
         height="48"
         style="fill:#3E3E3F;"
         width="40"
         x="35"
         y="29"
         id="rect12" /><circle
         cx="55"
         cy="82"
         r="2"
         style="fill:#CFD3D4;"
         id="circle14" /><g
         id="g16"><circle
           cx="59.667"
           cy="58.333"
           r="1.333"
           style="fill:#B6BCBD;"
           id="circle18" /><rect
           height="1"
           style="fill:#B6BCBD;"
           width="5"
           x="64"
           y="58"
           id="rect20" /></g><g
         id="g22"><circle
           cx="59.667"
           cy="64.667"
           r="1.333"
           style="fill:#B6BCBD;"
           id="circle24" /><rect
           height="1"
           style="fill:#B6BCBD;"
           width="5"
           x="64"
           y="64.333"
           id="rect26" /></g><circle
         cx="55"
         cy="26"
         r="1"
         style="fill:#3E3E3F;"
         id="circle28" /><polygon
         points="35.009,67 73,29.009 35.009,29.009   "
         style="fill:#5B5C5F;"
         id="polygon30" /><rect
         height="7"
         style="fill:#FBE158;"
         width="6"
         x="42"
         y="44"
         id="rect32" /><rect
         height="11"
         style="fill:#17B198;"
         width="6"
         x="52"
         y="40"
         id="rect34" /><rect
         height="16"
         style="fill:#059BBF;"
         width="6"
         x="63"
         y="35"
         id="rect36" /><g
         id="g38"><circle
           cx="47"
           cy="63"
           r="8"
           style="fill:#FACB1B;"
           id="circle40" /><path
           d="M55,63c0,4.42-3.58,8-8,8c-3.36,0-6.233-2.067-7.42-5l14.78-6.153C54.773,60.813,55,61.88,55,63z"
           style="fill:#4AC3AF;"
           id="path42" /><path
           d="M55.013,63.003c0,2.82-1.46,5.3-3.667,6.727l-4.327-6.82l7.353-3.06     C54.786,60.817,55.013,61.883,55.013,63.003z"
           style="fill:#21B2D1;"
           id="path44" /><path
           d="M54.36,59.847L47,62.913V55C50.3,55,53.133,57,54.36,59.847z"
           style="fill:#FA5655;"
           id="path46" /></g></g></g></svg>