<?xml version="1.0" encoding="UTF-8" standalone="no"?>
<svg
   xmlns:dc="http://purl.org/dc/elements/1.1/"
   xmlns:cc="http://creativecommons.org/ns#"
   xmlns:rdf="http://www.w3.org/1999/02/22-rdf-syntax-ns#"
   xmlns:svg="http://www.w3.org/2000/svg"
   xmlns="http://www.w3.org/2000/svg"
   xmlns:sodipodi="http://sodipodi.sourceforge.net/DTD/sodipodi-0.dtd"
   xmlns:inkscape="http://www.inkscape.org/namespaces/inkscape"
   enable-background="new 0 0 200 200"
   height="200px"
   id="Layer_1"
   version="1.0"
   viewBox="0 0 200 200"
   width="200px"
   xml:space="preserve"
   inkscape:version="0.91 r13725"
   sodipodi:docname="website.svg"><metadata
     id="metadata64"><rdf:RDF><cc:Work
         rdf:about=""><dc:format>image/svg+xml</dc:format><dc:type
           rdf:resource="http://purl.org/dc/dcmitype/StillImage" /></cc:Work></rdf:RDF></metadata><defs
     id="defs62" /><sodipodi:namedview
     pagecolor="#ffffff"
     bordercolor="#666666"
     borderopacity="1"
     objecttolerance="10"
     gridtolerance="10"
     guidetolerance="10"
     inkscape:pageopacity="0"
     inkscape:pageshadow="2"
     inkscape:window-width="1366"
     inkscape:window-height="705"
     id="namedview60"
     showgrid="false"
     inkscape:zoom="2.4429687"
     inkscape:cx="100"
     inkscape:cy="100"
     inkscape:window-x="0"
     inkscape:window-y="0"
     inkscape:window-maximized="1"
     inkscape:current-layer="Layer_1" /><g
     id="New_Symbol" /><g
     id="New_Symbol_1_" /><g
     id="New_Symbol_1" /><g
     id="New_Symbol_9_2_" /><g
     id="New_Symbol_7" /><g
     id="New_Symbol_9_1_" /><g
     id="New_Symbol_9" /><g
     id="Nuevo_símbolo" /><g
     id="New_Symbol_10" /><g
     id="New_Symbol_12" /><g
     id="New_Symbol_14" /><g
     id="New_Symbol_15" /><g
     id="New_Symbol_16" /><g
     id="New_Symbol_17_1_" /><g
     id="New_Symbol_18" /><g
     id="New_Symbol_19" /><g
     id="New_Symbol_17" /><g
     id="g20"
     style="fill:#5c6269;fill-opacity:1"><path
       d="M25.5,32.1c2.6,0,4.7-2.1,4.7-4.7s-2.1-4.7-4.7-4.7s-4.7,2.1-4.7,4.7S22.9,32.1,25.5,32.1z M25.5,24.7   c1.5,0,2.7,1.2,2.7,2.7c0,1.5-1.2,2.7-2.7,2.7s-2.7-1.2-2.7-2.7C22.8,25.9,24,24.7,25.5,24.7z"
       id="path22"
       style="fill:#5c6269;fill-opacity:1" /><path
       d="M36.8,32.1c2.6,0,4.7-2.1,4.7-4.7s-2.1-4.7-4.7-4.7c-2.6,0-4.7,2.1-4.7,4.7S34.2,32.1,36.8,32.1z M36.8,24.7   c1.5,0,2.7,1.2,2.7,2.7c0,1.5-1.2,2.7-2.7,2.7c-1.5,0-2.7-1.2-2.7-2.7C34.1,25.9,35.3,24.7,36.8,24.7z"
       id="path24"
       style="fill:#5c6269;fill-opacity:1" /><path
       d="M48.1,32.1c2.6,0,4.7-2.1,4.7-4.7s-2.1-4.7-4.7-4.7s-4.7,2.1-4.7,4.7S45.5,32.1,48.1,32.1z M48.1,24.7   c1.5,0,2.7,1.2,2.7,2.7c0,1.5-1.2,2.7-2.7,2.7s-2.7-1.2-2.7-2.7C45.4,25.9,46.6,24.7,48.1,24.7z"
       id="path26"
       style="fill:#5c6269;fill-opacity:1" /><path
       d="M67.1,154h-37c-0.6,0-1,0.4-1,1s0.4,1,1,1h37c0.6,0,1-0.4,1-1S67.7,154,67.1,154z"
       id="path28"
       style="fill:#5c6269;fill-opacity:1" /><path
       d="M67.1,159h-37c-0.6,0-1,0.4-1,1s0.4,1,1,1h37c0.6,0,1-0.4,1-1S67.7,159,67.1,159z"
       id="path30"
       style="fill:#5c6269;fill-opacity:1" /><path
       d="M67.1,164h-37c-0.6,0-1,0.4-1,1s0.4,1,1,1h37c0.6,0,1-0.4,1-1S67.7,164,67.1,164z"
       id="path32"
       style="fill:#5c6269;fill-opacity:1" /><path
       d="M67.1,169h-37c-0.6,0-1,0.4-1,1s0.4,1,1,1h37c0.6,0,1-0.4,1-1S67.7,169,67.1,169z"
       id="path34"
       style="fill:#5c6269;fill-opacity:1" /><path
       d="M119.1,154h-37c-0.6,0-1,0.4-1,1s0.4,1,1,1h37c0.6,0,1-0.4,1-1S119.7,154,119.1,154z"
       id="path36"
       style="fill:#5c6269;fill-opacity:1" /><path
       d="M119.1,159h-37c-0.6,0-1,0.4-1,1s0.4,1,1,1h37c0.6,0,1-0.4,1-1S119.7,159,119.1,159z"
       id="path38"
       style="fill:#5c6269;fill-opacity:1" /><path
       d="M119.1,164h-37c-0.6,0-1,0.4-1,1s0.4,1,1,1h37c0.6,0,1-0.4,1-1S119.7,164,119.1,164z"
       id="path40"
       style="fill:#5c6269;fill-opacity:1" /><path
       d="M119.1,169h-37c-0.6,0-1,0.4-1,1s0.4,1,1,1h37c0.6,0,1-0.4,1-1S119.7,169,119.1,169z"
       id="path42"
       style="fill:#5c6269;fill-opacity:1" /><path
       d="M170.1,154h-37c-0.6,0-1,0.4-1,1s0.4,1,1,1h37c0.6,0,1-0.4,1-1S170.7,154,170.1,154z"
       id="path44"
       style="fill:#5c6269;fill-opacity:1" /><path
       d="M170.1,159h-37c-0.6,0-1,0.4-1,1s0.4,1,1,1h37c0.6,0,1-0.4,1-1S170.7,159,170.1,159z"
       id="path46"
       style="fill:#5c6269;fill-opacity:1" /><path
       d="M170.1,164h-37c-0.6,0-1,0.4-1,1s0.4,1,1,1h37c0.6,0,1-0.4,1-1S170.7,164,170.1,164z"
       id="path48"
       style="fill:#5c6269;fill-opacity:1" /><path
       d="M170.1,169h-37c-0.6,0-1,0.4-1,1s0.4,1,1,1h37c0.6,0,1-0.4,1-1S170.7,169,170.1,169z"
       id="path50"
       style="fill:#5c6269;fill-opacity:1" /><path
       d="M185,77.6V36.7V18H15v18.7v40.6c0,0.2-0.3,0.4-0.3,0.7s0.3,0.6,0.3,0.7V182h170V78.4c0-0.1,0.1-0.3,0.1-0.4   S185,77.7,185,77.6z M183,180H17V79h63.4c0.8,10.2,9.4,18.3,19.8,18.3s19-8.1,19.8-18.3H183V180z M100.2,80.4   c5.9,0,11.1,4.3,12.2,10.1c-3.2,3-7.5,4.8-12.2,4.8c-4.7,0-9-1.8-12.2-4.8C89.1,84.7,94.3,80.4,100.2,80.4z M95.4,73.1   c0-2.7,2.2-4.8,4.8-4.8c2.7,0,4.8,2.2,4.8,4.8s-2.2,4.8-4.8,4.8C97.6,77.9,95.4,75.7,95.4,73.1z M103.8,78.9   c1.9-1.2,3.2-3.4,3.2-5.8c0-3.8-3.1-6.8-6.8-6.8c-3.8,0-6.8,3.1-6.8,6.8c0,2.5,1.3,4.6,3.2,5.8c-4.9,1.3-8.8,5-10.2,9.9   c-2.6-3.1-4.1-7.1-4.1-11.4c0-9.9,8-17.9,17.9-17.9s17.9,8,17.9,17.9c0,4.3-1.5,8.3-4.1,11.4C112.6,83.9,108.7,80.1,103.8,78.9z    M183,77h-62.9c-0.2-10.8-9-19.6-19.9-19.6S80.5,66.2,80.3,77H17V37h166V77z M183,35H17V20h166V35z"
       id="path52"
       style="fill:#5c6269;fill-opacity:1" /><path
       d="M28,146h40v-40H28V146z M30,108h36v36H30V108z"
       id="path54"
       style="fill:#5c6269;fill-opacity:1" /><path
       d="M80,146h40v-40H80V146z M82,108h36v36H82V108z"
       id="path56"
       style="fill:#5c6269;fill-opacity:1" /><path
       d="M171,106h-40v40h40V106z M169,144h-36v-36h36V144z"
       id="path58"
       style="fill:#5c6269;fill-opacity:1" /></g></svg>