<?xml version="1.0" encoding="UTF-8" standalone="no"?>
<!-- Created with Inkscape (http://www.inkscape.org/) -->

<svg
   xmlns:dc="http://purl.org/dc/elements/1.1/"
   xmlns:cc="http://creativecommons.org/ns#"
   xmlns:rdf="http://www.w3.org/1999/02/22-rdf-syntax-ns#"
   xmlns:svg="http://www.w3.org/2000/svg"
   xmlns="http://www.w3.org/2000/svg"
   xmlns:sodipodi="http://sodipodi.sourceforge.net/DTD/sodipodi-0.dtd"
   xmlns:inkscape="http://www.inkscape.org/namespaces/inkscape"
   width="101.6mm"
   height="101.6mm"
   viewBox="0 0 359.99999 359.99998"
   id="svg4140"
   version="1.1"
   inkscape:version="0.91 r13725"
   sodipodi:docname="logo-simple.svg">
  <defs
     id="defs4142" />
  <sodipodi:namedview
     id="base"
     pagecolor="#ffffff"
     bordercolor="#666666"
     borderopacity="1.0"
     inkscape:pageopacity="0.0"
     inkscape:pageshadow="2"
     inkscape:zoom="0.7"
     inkscape:cx="356.25641"
     inkscape:cy="98.696211"
     inkscape:document-units="px"
     inkscape:current-layer="layer1"
     showgrid="false"
     fit-margin-top="0"
     fit-margin-left="0"
     fit-margin-right="0"
     fit-margin-bottom="0"
     inkscape:window-width="1366"
     inkscape:window-height="703"
     inkscape:window-x="0"
     inkscape:window-y="0"
     inkscape:window-maximized="1" />
  <metadata
     id="metadata4145">
    <rdf:RDF>
      <cc:Work
         rdf:about="">
        <dc:format>image/svg+xml</dc:format>
        <dc:type
           rdf:resource="http://purl.org/dc/dcmitype/StillImage" />
        <dc:title></dc:title>
      </cc:Work>
    </rdf:RDF>
  </metadata>
  <g
     inkscape:label="Layer 1"
     inkscape:groupmode="layer"
     id="layer1"
     transform="translate(182.02669,-33.491322)">
    <g
       id="g4139"
       transform="translate(-0.47527991,-2.5188886)">
      <path
         inkscape:connector-curvature="0"
         id="path4772"
         style="fill:#0277bd;fill-opacity:1;fill-rule:evenodd"
         d="m -68.55262,103.2526 c 1.0743,-21.550241 6.68007,-35.252295 26.95617,-46.958681 C -19.21242,43.37061 7.07373,46.9479 17.07946,64.278221 35.20588,95.673936 12.78362,150.48216 -9.64135,205.28956 c -58.67537,-7.98403 -117.35182,-15.96968 -135.47824,-47.36513 -10.00573,-17.33113 0.0396,-41.88437 22.42307,-54.80713 20.27448,-11.705584 34.94346,-9.709364 54.1439,0.1353 z m 15.95939,71.80204 c 5.52605,1.79339 12.31213,4.862 19.33656,8.90893 l 0.32728,0.18899 10e-4,8.1e-4 0.3243,0.18899 0.003,10e-4 0.32213,0.18845 0.003,0.002 0.31969,0.18791 0.005,0.003 0.31725,0.18709 0.005,0.005 0.31399,0.18709 0.008,0.005 0.31128,0.1871 0.008,0.005 0.30857,0.18655 0.0109,0.005 0.30613,0.18601 0.0108,0.005 0.30342,0.18573 0.0109,0.008 0.30016,0.18519 0.0136,0.008 0.29772,0.18465 0.0136,0.008 0.2942,0.18411 0.0163,0.0108 0.29175,0.1833 0.0163,0.0109 0.28932,0.18248 0.0163,0.0109 0.28661,0.18248 0.019,0.0109 0.28389,0.18194 0.019,0.0136 0.28118,0.18113 0.0217,0.0135 0.2782,0.18086 0.0217,0.0136 0.27549,0.1795 0.0244,0.0163 0.27224,0.17869 0.0244,0.0163 0.2698,0.17814 0.0244,0.0163 0.26708,0.17815 0.0271,0.0163 0.26383,0.17679 0.0274,0.019 0.26112,0.17625 0.0279,0.019 0.25868,0.17543 0.0285,0.019 0.25596,0.17408 0.0301,0.0217 0.25271,0.17408 0.0312,0.0217 0.25027,0.17273 0.0312,0.0217 0.24756,0.17218 0.0325,0.0217 0.24485,0.17164 0.0331,0.0244 0.24187,0.17029 0.0336,0.0244 0.23915,0.16947 0.0353,0.0244 0.23645,0.16893 0.0358,0.0244 0.23319,0.16757 0.0363,0.0271 0.23075,0.16703 0.0377,0.0271 0.2275,0.16622 0.0382,0.0274 0.22478,0.16486 0.0391,0.0288 0.22234,0.16431 0.0396,0.0287 0.21963,0.16297 0.0396,0.0298 0.21719,0.16242 0.0409,0.0306 0.21367,0.16107 0.0415,0.0312 0.21122,0.16052 0.0418,0.032 0.20852,0.15917 0.0428,0.0325 0.20526,0.15862 0.0437,0.0331 0.20282,0.15727 0.0434,0.0336 0.20011,0.15673 0.045,0.0344 0.19685,0.15537 0.0447,0.035 0.19496,0.15401 0.0456,0.0358 0.19171,0.1532 0.0455,0.0366 0.18899,0.15266 0.0469,0.0369 0.18574,0.15076 0.0469,0.0377 0.18384,0.15021 0.0466,0.0382 0.1814,0.14886 0.0475,0.039 0.17787,0.14805 0.0483,0.0399 0.17543,0.14615 0.048,0.0401 0.17299,0.14561 0.048,0.0409 0.17029,0.14425 0.0488,0.0418 0.16757,0.14344 0.0488,0.0418 0.16432,0.14208 0.0494,0.0423 0.16242,0.141 0.0494,0.0436 0.15943,0.13965 0.0494,0.0436 0.15646,0.13829 0.0502,0.0447 0.15401,0.1372 -0.23536,-0.30342 -0.0708,-0.0922 -0.30802,-0.40049 -0.2397,-0.31236 -0.0702,-0.0916 -0.24186,-0.31779 -0.0689,-0.0917 -0.2443,-0.3224 -0.0681,-0.0903 -0.24648,-0.32809 -0.0675,-0.0897 -0.24892,-0.33271 -0.067,-0.0889 -0.25082,-0.33732 -0.0656,-0.0884 -0.25325,-0.34246 -0.0651,-0.0876 -0.25542,-0.34707 -0.0637,-0.087 -0.25787,-0.35222 -0.0629,-0.0865 -0.26004,-0.35656 -0.0624,-0.086 -0.26193,-0.36198 -0.061,-0.0843 -0.26465,-0.3666 -0.0602,-0.0838 -0.26654,-0.37175 -0.0591,-0.0824 -0.26898,-0.3769 -0.0586,-0.0813 -0.27088,-0.38205 -0.0572,-0.0805 -0.27305,-0.38666 -0.0559,-0.0792 -0.27549,-0.39182 -0.0553,-0.0781 -0.27739,-0.39696 -0.054,-0.0767 -0.27929,-0.40157 -0.0534,-0.0759 -0.28119,-0.407 -0.0521,-0.0746 -0.28389,-0.41133 -0.0507,-0.0735 -0.28606,-0.41649 -0.0494,-0.0721 -0.28796,-0.4211 -0.0485,-0.0716 -0.28986,-0.42543 -0.0474,-0.0702 -0.29176,-0.43086 -0.0461,-0.0683 -0.29447,-0.43601 -0.0447,-0.067 -0.29583,-0.44117 -0.0442,-0.0648 -0.29827,-0.44577 -0.042,-0.0645 -0.30043,-0.45092 -0.0415,-0.0624 -0.30152,-0.45553 -0.0404,-0.061 -0.30396,-0.46068 -0.039,-0.0591 -0.30531,-0.46611 -0.0385,-0.0578 -0.30721,-0.47044 -0.0371,-0.0559 -0.30911,-0.4756 -0.0352,-0.0548 -0.31128,-0.48021 -0.0344,-0.0526 -0.31318,-0.48455 -0.0331,-0.0521 -0.31454,-0.48943 -0.0317,-0.0499 -0.31671,-0.49458 -0.0304,-0.048 -0.31833,-0.49919 -0.0293,-0.0466 -0.3205,-0.50434 -0.0279,-0.0442 -0.32158,-0.50895 -0.0271,-0.0428 -0.32375,-0.51383 -0.0244,-0.0409 -0.32511,-0.51871 -0.0244,-0.0388 -0.32619,-0.52333 -0.0244,-0.0377 -0.32809,-0.52765 -0.0217,-0.0355 -0.32945,-0.53309 -0.0217,-0.0331 -0.33081,-0.53796 -0.019,-0.0312 -0.3327,-0.54257 -0.019,-0.0293 -0.33406,-0.54718 -0.0163,-0.0271 -0.33595,-0.5526 -0.0163,-0.0244 -0.33731,-0.55695 -0.0136,-0.0244 -0.33921,-0.56074 -0.0136,-0.0217 -0.34056,-0.56617 -0.0109,-0.019 -0.3411,-0.5705 -0.0109,-0.0163 -0.34246,-0.57511 -0.008,-0.0163 -0.0632,-0.10656 -0.63422,-1.07104 -0.005,-0.0109 -0.34626,-0.58867 -0.005,-0.008 -0.34762,-0.59328 -0.005,-0.005 -0.34897,-0.59843 -0.002,-0.005 -0.35033,-0.6025 -10e-4,-0.002 -0.35142,-0.60711 c -7.52036,-13.02607 -13.63236,-25.37563 -17.64241,-35.23575 6.53446,8.40269 14.17358,19.871 21.69395,32.89654 l 0.35032,0.60764 10e-4,0.002 0.34653,0.6044 0.003,0.005 0.34301,0.60033 0.003,0.008 0.34002,0.59708 0.005,0.0108 0.3365,0.59328 0.005,0.0136 0.33271,0.59002 0.008,0.0136 0.32945,0.58623 0.008,0.0163 0.3262,0.58297 0.0108,0.019 0.3224,0.57891 0.0136,0.0217 0.31887,0.57511 0.0136,0.0244 0.31589,0.57186 0.0136,0.0271 0.31182,0.56779 0.0163,0.0287 0.30857,0.56399 0.0163,0.0312 0.30558,0.5602 0.019,0.0331 0.30152,0.55613 0.019,0.0358 0.29827,0.55234 0.0217,0.0377 0.29501,0.54853 0.0217,0.0401 0.29121,0.54475 0.0217,0.042 0.28797,0.54068 0.0244,0.045 0.28471,0.53661 0.0244,0.0461 0.28146,0.53281 0.0271,0.0488 0.27739,0.52902 0.0271,0.0507 0.27414,0.52495 0.0282,0.0534 0.27088,0.52034 0.0285,0.0553 0.26789,0.51654 0.029,0.0572 0.26464,0.51275 0.0304,0.0591 0.26057,0.50813 0.032,0.0618 0.25732,0.50407 0.0325,0.0632 0.25407,0.50028 0.0331,0.0651 0.25027,0.49648 0.0344,0.0667 0.24756,0.49214 0.0344,0.0694 0.24431,0.48725 0.0358,0.0716 0.24024,0.48292 0.0366,0.0732 0.23698,0.47912 0.0377,0.0754 0.23346,0.47424 0.0382,0.0773 0.23075,0.47045 0.0382,0.0786 0.22749,0.46611 0.0396,0.0811 0.22343,0.4615 0.0404,0.0824 0.22017,0.45743 0.0409,0.0846 0.21719,0.45282 0.0415,0.0857 0.21394,0.44902 0.042,0.0879 0.21069,0.44442 0.202,0.42706 0.0483,0.10196 0.0428,0.0916 0.2039,0.4352 0.48618,1.04447 0.0447,0.096 0.19441,0.42245 0.23645,0.51519 0.0455,0.099 0.18764,0.41323 0.0464,0.1006 0.18438,0.40889 0.0461,0.10196 0.1814,0.40401 0.0466,0.10358 0.17814,0.39941 0.0474,0.10547 0.1749,0.39507 0.21882,0.49648 0.0474,0.10764 0.16892,0.38612 0.0483,0.10928 0.16486,0.38123 0.0483,0.10982 0.16242,0.37771 0.048,0.1109 0.15997,0.37256 0.048,0.11226 0.15591,0.36849 0.40022,0.95066 0.0488,0.11578 0.14696,0.35412 0.0488,0.11687 0.14343,0.34951 0.0488,0.11849 0.141,0.34437 -0.0244,-0.12148 -0.029,-0.14371 -0.0271,-0.12663 -0.0279,-0.14235 -0.0271,-0.1307 -0.0279,-0.14099 -0.0271,-0.13395 -0.0271,-0.14019 -0.10331,-0.55504 -0.0271,-0.1448 -0.0244,-0.13666 -0.0271,-0.14805 -0.0244,-0.13503 -0.0271,-0.15211 -0.0217,-0.13395 -0.0271,-0.15537 -0.0217,-0.13314 -0.0474,-0.28986 -0.0271,-0.16296 -0.0217,-0.12934 -0.0271,-0.16703 -0.019,-0.12798 -0.0271,-0.17028 -0.019,-0.12663 -0.0271,-0.17435 -0.019,-0.12473 -0.0271,-0.17787 -0.0163,-0.12365 -0.0271,-0.18113 -0.0163,-0.12147 -0.0271,-0.18601 -0.0163,-0.11958 -0.0271,-0.1898 -0.0163,-0.11741 -0.0271,-0.19387 -0.0136,-0.11606 -0.0244,-0.19712 -0.0136,-0.11416 -0.0271,-0.20092 -0.0136,-0.11253 -0.0244,-0.20526 -0.0135,-0.11036 -0.0244,-0.20851 -0.0135,-0.10873 -0.0244,-0.21313 -0.0108,-0.10575 -0.0244,-0.21773 -0.0108,-0.10412 -0.035,-0.32294 -0.0244,-0.22479 -0.0109,-0.10005 -0.0244,-0.22939 -0.008,-0.0974 -0.0244,-0.23346 -0.008,-0.0954 -0.0244,-0.23726 -0.008,-0.0927 -0.0217,-0.24133 -0.008,-0.0908 -0.0217,-0.24567 -0.008,-0.0884 -0.0217,-0.24946 -0.008,-0.0857 -0.0217,-0.25407 -0.008,-0.0832 -0.0217,-0.25814 -0.005,-0.0811 -0.019,-0.26194 -0.005,-0.0786 -0.019,-0.26627 -0.005,-0.0754 -0.0244,-0.34463 -0.019,-0.27413 -0.005,-0.0708 -0.019,-0.27875 -0.005,-0.0683 -0.019,-0.28335 -0.003,-0.0648 -0.0163,-0.28741 -0.003,-0.0629 -0.0163,-0.29122 -0.003,-0.0605 -0.0163,-0.29556 -0.003,-0.0572 -0.0163,-0.29962 -0.003,-0.0545 -0.0136,-0.30423 -0.003,-0.0518 -0.0136,-0.30803 -0.002,-0.0488 -0.0136,-0.31264 -10e-4,-0.0461 -0.0136,-0.31698 -0.001,-0.0428 -0.0136,-0.32104 -10e-4,-0.0404 -0.0108,-0.32484 -10e-4,-0.0371 -0.0109,-0.32999 -5.4e-4,-0.0339 -0.0109,-0.33406 -8.1e-4,-0.0312 -0.008,-0.3384 -5.4e-4,-0.0279 -0.008,-0.34246 0,-0.0244 -0.008,-0.34708 -5.4e-4,-0.0217 -0.005,-0.35114 -5.4e-4,-0.019 -0.005,-0.35493 -5.4e-4,-0.0163 -0.005,-0.35955 0,-0.0136 -0.003,-0.36388 0,-0.008 -0.002,-0.36849 0,-0.005 -10e-4,-0.37229 0,-0.003 0,-0.37636 c 0.008,-8.10713 0.74349,-15.51822 1.95283,-21.20073 1.19875,5.68468 1.92001,13.09685 1.91215,21.20398 l -5.4e-4,0.37826 0,0.001 -0.002,0.37609 0,0.002 -0.003,0.37446 0,0.003 -0.003,0.37229 0,0.003 -0.005,0.37039 0,0.005 -0.005,0.36796 -8.1e-4,0.005 -0.005,0.36605 -5.4e-4,0.008 -0.008,0.36388 0,0.008 -0.008,0.36117 0,0.008 -0.0108,0.35928 0,0.0108 -0.0109,0.35684 0,0.0108 -0.0136,0.35467 0,0.0108 -0.0135,0.35304 -5.5e-4,0.0136 -0.0136,0.35006 -5.5e-4,0.0136 -0.0136,0.34762 -5.5e-4,0.0163 -0.0163,0.34571 -5.4e-4,0.0163 -0.0163,0.34382 -5.4e-4,0.0163 -0.0163,0.34111 -5.4e-4,0.019 -0.019,0.3384 -0.001,0.019 -0.019,0.33595 -5.4e-4,0.019 -0.019,0.33406 -10e-4,0.019 -0.0217,0.33135 -10e-4,0.0217 -0.0217,0.3289 -10e-4,0.0217 -0.0217,0.327 -0.001,0.0217 -0.0244,0.32429 -0.002,0.0244 -0.0244,0.32212 -0.002,0.0244 -0.0244,0.31968 -0.002,0.0244 -0.0244,0.31697 -0.002,0.0271 -0.0271,0.31453 -0.002,0.0271 -0.0271,0.31182 -0.003,0.0282 -0.0279,0.30911 -0.0306,0.33541 -0.002,0.0293 -0.0293,0.30477 -0.003,0.0298 -0.0298,0.30152 -0.003,0.0312 -0.0306,0.29881 -0.003,0.032 -0.0312,0.2961 -0.003,0.0325 -0.0317,0.29447 -0.003,0.0325 -0.0331,0.29175 -0.003,0.0336 -0.0331,0.2885 -0.003,0.0344 -0.0336,0.2866 -0.005,0.0344 -0.0344,0.28417 -0.005,0.0355 -0.0355,0.28145 -0.003,0.0358 -0.0358,0.27874 -0.005,0.0371 -0.0363,0.27549 -0.005,0.0377 -0.0369,0.27278 -0.005,0.0385 -0.0377,0.27034 -0.005,0.0388 -0.0382,0.2679 -0.005,0.0388 -0.039,0.26518 -0.0447,0.30233 -0.005,0.0401 -0.0396,0.26004 -0.005,0.0409 -0.0404,0.25651 -0.005,0.0418 -0.0409,0.25407 -0.005,0.0423 -0.0415,0.25136 -0.008,0.0423 -0.0418,0.24892 -0.008,0.0428 -0.0423,0.2462 -0.008,0.0428 -0.0428,0.24376 -0.008,0.0434 -0.0434,0.24051 -0.008,0.0442 -0.0434,0.2378 -0.008,0.045 -0.0442,0.23455 -0.008,0.0447 -0.0447,0.23264 -0.008,0.0456 -0.0447,0.22858 -0.008,0.0464 -0.0453,0.22614 -0.0109,0.0461 -0.0461,0.22397 -0.008,0.0464 -0.0466,0.22017 0.008,0.0217 -0.0109,-0.0135 -0.008,0.039 -0.0136,-0.0683 -0.0109,-0.0136 -0.2397,-0.0786 -0.019,-0.005 -0.24159,-0.0797 -0.019,-0.008 -0.24377,-0.0819 -0.019,-0.005 -0.24566,-0.0838 -0.019,-0.008 -0.24756,-0.0857 -0.019,-0.005 -0.24946,-0.0879 -0.019,-0.005 -0.25136,-0.0889 -0.019,-0.008 -0.25352,-0.0908 -0.019,-0.005 -0.25461,-0.0935 -0.019,-0.005 -0.25651,-0.0949 -0.019,-0.005 -0.25922,-0.0968 -0.0163,-0.005 -0.26139,-0.0981 -0.0163,-0.008 -0.26247,-0.10005 -0.0163,-0.005 -0.26438,-0.10222 -0.0163,-0.005 -0.26627,-0.10413 -0.0163,-0.005 -0.26763,-0.10602 -0.0163,-0.005 -0.26979,-0.10738 -0.0163,-0.005 -0.27088,-0.109 -0.0163,-0.005 -0.27305,-0.11117 -0.0163,-0.005 -0.27494,-0.11253 -0.0163,-0.005 -0.27604,-0.11443 -0.0163,-0.005 -0.27739,-0.11605 -0.0163,-0.005 -0.27929,-0.11849 -0.0163,-0.005 -0.28065,-0.12039 -0.0163,-0.005 -0.28254,-0.12148 -0.0136,-0.005 -0.2839,-0.12365 -0.0136,-0.005 -0.28607,-0.12473 -0.0135,-0.005 -0.28715,-0.1269 -0.0136,-0.005 -0.2885,-0.1288 -0.0136,-0.005 -0.2904,-0.1307 -0.0136,-0.005 -0.29176,-0.13259 -0.0136,-0.005 -0.29311,-0.13395 -0.0109,-0.005 -0.29501,-0.13585 -0.0109,-0.005 -0.29582,-0.13774 -0.0109,-0.005 -0.29772,-0.13883 -0.0109,-0.005 -0.29826,-0.141 -0.0109,-0.005 -0.30016,-0.14317 -0.0109,-0.005 -0.30152,-0.14425 -0.0108,-0.005 -0.30261,-0.14615 -0.0108,-0.005 -0.30423,-0.14805 -0.008,-0.005 -0.30559,-0.1494 -0.008,-0.005 -0.30613,-0.1513 -0.008,-0.005 -0.30722,-0.1532 -0.008,-0.003 -0.30884,-0.15483 -0.008,-0.003 -0.31074,-0.15673 -0.008,-0.003 -0.31128,-0.15862 -0.008,-0.003 -0.31236,-0.15971 -0.008,-0.003 -0.31317,-0.16107 -0.005,-0.003 -0.31453,-0.16323 -0.005,-0.003 -0.31643,-0.16513 -0.005,-0.002 -0.31725,-0.16703 -0.005,-0.003 -0.31779,-0.16893 -0.005,-0.002 -0.31888,-0.16974 -0.005,-0.003 -0.31968,-0.17218 -0.003,-0.002 -0.32077,-0.17354 -0.005,-0.002 -0.32159,-0.17544 -0.003,-0.002 -0.32294,-0.17679 -0.003,-0.002 -0.32348,-0.17814 -0.003,-0.002 -0.32484,-0.18004 -0.002,-0.001 -0.32565,-0.18194 -10e-4,-5.4e-4 -0.32619,-0.18384 -10e-4,-8.2e-4 -0.32755,-0.18574 -8.1e-4,0 -0.32809,-0.18709 0,-8.1e-4 -0.32891,-0.18845 c -7.02442,-4.04693 -13.08329,-8.3772 -17.40705,-12.25791 z" />
      <path
         inkscape:connector-curvature="0"
         id="path4774"
         style="fill:#0277bd;fill-opacity:1;fill-rule:evenodd"
         d="m 63.73906,328.76776 c -1.07376,21.55051 -6.67925,35.25256 -26.95617,46.95868 -22.38294,12.92331 -48.66964,9.34629 -58.67537,-7.98458 -18.12614,-31.39571 4.29584,-86.20339 26.72027,-141.01106 58.67591,7.98457 117.3529,15.96968 135.47932,47.36594 10.00573,17.33005 -0.0401,41.88356 -22.42361,54.80632 -20.27475,11.70585 -34.94372,9.70909 -54.14444,-0.1353 z M 9.93817,276.44491 c 1.20987,-5.68223 1.9455,-13.09332 1.95309,-21.20073 0.008,-8.07649 -0.70797,-15.46453 -1.89914,-21.1408 4.01059,9.84223 10.10552,22.14921 17.59958,35.12892 7.52009,13.02581 15.15867,24.49412 21.6934,32.89681 -4.00977,-9.85985 -10.12178,-22.20995 -17.64187,-35.23575 -7.49189,-12.9751 -15.10038,-24.40356 -21.61748,-32.79676 4.3159,3.85522 10.33192,8.14727 17.29859,12.1603 7.02443,4.04665 13.81052,7.1158 19.33603,8.90892 -4.3235,-3.87989 -10.38236,-8.21098 -17.40679,-12.25791 -7.00599,-4.03607 -13.77526,-7.09899 -19.29237,-8.89428 l -0.0136,-0.0163 0.005,0.0136 -0.0377,-0.0136 0.0523,0.0469 0.005,0.0163 c -1.20662,5.67952 -1.94062,13.08193 -1.94903,21.1793 -0.008,8.10741 0.71394,15.51985 1.91216,21.20453 z" />
      <path
         inkscape:connector-curvature="0"
         id="path4776"
         style="fill:#0277bd;fill-opacity:1;fill-rule:evenodd"
         d="m -115.87437,282.94656 c -21.55105,-1.0743 -35.25256,-6.6798 -46.95922,-26.9559 -12.92276,-22.38457 -9.34629,-48.67045 7.98512,-58.67618 31.39572,-18.12642 86.20339,4.29584 141.01106,26.72081 -7.9843,58.67618 -15.97022,117.35155 -47.36594,135.47851 -17.33005,10.006 -41.88355,-0.039 -54.80686,-22.42362 -11.7053,-20.27447 -9.70909,-34.94263 0.13584,-54.14362 z m 53.02242,-54.5509 c 5.68224,1.20906 13.09332,1.94469 21.20073,1.95229 8.07568,0.008 15.4629,-0.70798 21.13917,-1.89833 -9.84222,4.01059 -22.14921,10.10497 -35.1281,17.59876 -13.02581,7.52036 -24.49331,15.15949 -32.89681,21.69368 9.86066,-4.01005 22.20995,-10.12205 35.23656,-17.64215 12.97348,-7.49107 24.40031,-15.09793 32.79377,-21.61504 -3.85386,4.31645 -8.1459,10.33084 -12.15731,17.29616 -4.04665,7.02442 -7.1158,13.81051 -8.90892,19.33602 3.87989,-4.3235 8.21098,-10.38155 12.25791,-17.40679 4.03607,-7.00517 7.09736,-13.77282 8.89292,-19.29074 l 0.019,-0.0136 -0.0136,0.005 0.0136,-0.0385 -0.0469,0.0523 -0.0136,0.005 c -5.68007,-1.20662 -13.08275,-1.94062 -21.18012,-1.94822 -8.10659,-0.008 -15.51903,0.71313 -21.20371,1.91216 z" />
      <path
         inkscape:connector-curvature="0"
         id="path4778"
         style="fill:#0277bd;fill-opacity:1;fill-rule:evenodd"
         d="m 112.77204,148.84712 c 21.55051,1.07457 35.25175,6.67925 46.95868,26.95617 12.92276,22.38348 9.34629,48.66937 -7.9843,58.67537 C 120.3507,252.6048 65.54221,230.18282 10.73454,207.75839 18.71884,149.08221 26.70476,90.406026 58.10048,72.279062 c 17.33059,-10.005187 41.88328,0.03986 54.80686,22.423614 11.70612,20.275294 9.70991,34.943454 -0.1353,54.144444 z M 62.43699,202.103 c -5.6825,-1.20987 -13.09332,-1.94469 -21.20072,-1.95228 -8.07514,-0.008 -15.46155,0.70689 -21.13701,1.89751 9.84223,-4.01059 22.14759,-10.10579 35.12513,-17.59822 13.02553,-7.52009 24.49412,-15.15922 32.89653,-21.69341 -9.85958,4.01005 -22.20967,10.12206 -35.23548,17.64215 -12.97591,7.49162 -24.40599,15.10092 -32.79919,21.61884 3.85603,-4.31591 8.14889,-10.33247 12.16246,-17.29995 4.04692,-7.02525 7.11608,-13.81052 8.9092,-19.33684 -3.88017,4.32404 -8.21126,10.38236 -12.25791,17.4076 -4.03608,7.00599 -7.09899,13.77499 -8.89455,19.29209 l -0.0163,0.0136 0.0136,-0.005 -0.0136,0.0369 0.0456,-0.0507 0.019,-0.008 c 5.68006,1.20689 13.08193,1.94089 21.17849,1.94848 8.1074,0.008 15.51985,-0.71312 21.20452,-1.91215 z" />
    </g>
  </g>
</svg>
