<?xml version="1.0" encoding="UTF-8" standalone="no"?>
<svg
   xmlns:dc="http://purl.org/dc/elements/1.1/"
   xmlns:cc="http://creativecommons.org/ns#"
   xmlns:rdf="http://www.w3.org/1999/02/22-rdf-syntax-ns#"
   xmlns:svg="http://www.w3.org/2000/svg"
   xmlns="http://www.w3.org/2000/svg"
   xmlns:sodipodi="http://sodipodi.sourceforge.net/DTD/sodipodi-0.dtd"
   xmlns:inkscape="http://www.inkscape.org/namespaces/inkscape"
   viewBox="0 0 518.534 123.53362"
   id="svg2"
   height="123.53362"
   width="518.534"
   version="1.1"
   inkscape:version="0.91 r13725"
   sodipodi:docname="logo-full.svg">
  <sodipodi:namedview
     pagecolor="#ffffff"
     bordercolor="#666666"
     borderopacity="1"
     objecttolerance="10"
     gridtolerance="10"
     guidetolerance="10"
     inkscape:pageopacity="0"
     inkscape:pageshadow="2"
     inkscape:window-width="1366"
     inkscape:window-height="703"
     id="namedview17"
     showgrid="false"
     inkscape:zoom="0.54576942"
     inkscape:cx="32.250751"
     inkscape:cy="-46.191712"
     inkscape:window-x="0"
     inkscape:window-y="0"
     inkscape:window-maximized="1"
     inkscape:current-layer="svg2"
     fit-margin-top="0"
     fit-margin-left="0"
     fit-margin-right="0"
     fit-margin-bottom="0" />
  <metadata
     id="metadata27">
    <rdf:RDF>
      <cc:Work
         rdf:about="">
        <dc:format>image/svg+xml</dc:format>
        <dc:type
           rdf:resource="http://purl.org/dc/dcmitype/StillImage" />
        <dc:title />
      </cc:Work>
    </rdf:RDF>
  </metadata>
  <defs
     id="defs25" />
  <path
     id="path6"
     style="fill:#0277bd;fill-rule:evenodd;fill-opacity:1"
     d="m 37.634277,20.181953 c 0.3962,-7.9477 2.4636,-13.0009998 9.9414,-17.3182998 8.2552,-4.7661 17.9495,-3.44679996 21.6396,2.9446 6.685,11.5786998 -1.5843,31.7918998 -9.8546,52.0047998 -21.6394,-2.9445 -43.2792,-5.8896 -49.9642004,-17.4682 -3.6901,-6.3917 0.0146,-15.4469 8.2696004,-20.2128 7.4772,-4.317 12.8871,-3.5808 19.9682,0.0499 z m 5.8858,26.4805 c 2.038,0.6614 4.5407,1.7931 7.1313,3.2856 l 0.1207,0.0697 5e-4,3e-4 0.1196,0.0697 0.001,5e-4 0.1188,0.0695 0.0012,9e-4 0.1179,0.0693 0.0017,0.0012 0.117,0.069 0.0021,0.0015 0.1158,0.069 0.0026,0.0017 0.1148,0.069 0.0031,0.0019 0.1138,0.0688 0.0036,0.0021 0.1129,0.0686 0.0039,0.0024 0.1119,0.0685 0.0043,0.0026 0.1107,0.0683 0.005,0.0029 0.1098,0.0681 0.0053,0.0033 0.1085,0.0679 0.0058,0.0035 0.1076,0.0676 0.0062,0.0039 0.1067,0.0673 0.0064,0.0041 0.1057,0.0673 0.007,0.0043 0.1047,0.0671 0.0072,0.0046 0.1037,0.0668 0.0077,0.0048 0.1026,0.0667 0.0079,0.0052 0.1016,0.0662 0.0086,0.0055 0.1004,0.0659 0.0089,0.006 0.0995,0.0657 0.0093,0.0059 0.0985,0.0657 0.0096,0.0062 0.0973,0.0652 0.0101,0.0067 0.0963,0.065 0.0103,0.0069 0.0954,0.0647 0.0105,0.0072 0.0944,0.0642 0.0111,0.0075 0.0932,0.0642 0.0115,0.0077 0.0923,0.0637 0.0115,0.0082 0.0913,0.0635 0.012,0.0081 0.0903,0.0633 0.0122,0.0086 0.0892,0.0628 0.0124,0.0089 0.0882,0.0625 0.013,0.0091 0.0872,0.0623 0.0132,0.0094 0.086,0.0618 0.0134,0.0098 0.0851,0.0616 0.0139,0.0099 0.0839,0.0613 0.0141,0.0101 0.0829,0.0608 0.0144,0.0106 0.082,0.0606 0.0146,0.0106 0.081,0.0601 0.0146,0.011 0.0801,0.0599 0.0151,0.0113 0.0788,0.0594 0.0153,0.0115 0.0779,0.0592 0.0154,0.0118 0.0769,0.0587 0.0158,0.012 0.0757,0.0585 0.0161,0.0122 0.0748,0.058 0.016,0.0124 0.0738,0.0578 0.0166,0.0127 0.0726,0.0573 0.0165,0.0129 0.0719,0.0568 0.0168,0.0132 0.0707,0.0565 0.0168,0.0135 0.0697,0.0563 0.0173,0.0136 0.0685,0.0556 0.0173,0.0139 0.0678,0.0554 0.0172,0.0141 0.0669,0.0549 0.0175,0.0144 0.0656,0.0546 0.0178,0.0147 0.0647,0.0539 0.0177,0.0148 0.0638,0.0537 0.0177,0.0151 0.0628,0.0532 0.018,0.0154 0.0618,0.0529 0.018,0.0154 0.0606,0.0524 0.0182,0.0156 0.0599,0.052 0.0182,0.0161 0.0588,0.0515 0.0182,0.0161 0.0577,0.051 0.0185,0.0165 0.0568,0.0506 -0.0868,-0.1119 -0.0261,-0.034 -0.1136,-0.1477 -0.0884,-0.1152 -0.0259,-0.0338 -0.0892,-0.1172 -0.0254,-0.0338 -0.0901,-0.1189 -0.0251,-0.0333 -0.0909,-0.121 -0.0249,-0.0331 -0.0918,-0.1227 -0.0247,-0.0328 -0.0925,-0.1244 -0.0242,-0.0326 -0.0934,-0.1263 -0.024,-0.0323 -0.0942,-0.128 -0.0235,-0.0321 -0.0951,-0.1299 -0.0232,-0.0319 -0.0959,-0.1315 -0.023,-0.0317 -0.0966,-0.1335 -0.0225,-0.0311 -0.0976,-0.1352 -0.0222,-0.0309 -0.0983,-0.1371 -0.0218,-0.0304 -0.0992,-0.139 -0.0216,-0.03 -0.0999,-0.1409 -0.0211,-0.0297 -0.1007,-0.1426 -0.0206,-0.0292 -0.1016,-0.1445 -0.0204,-0.0288 -0.1023,-0.1464 -0.0199,-0.0283 -0.103,-0.1481 -0.0197,-0.028 -0.1037,-0.1501 -0.0192,-0.0275 -0.1047,-0.1517 -0.0187,-0.0271 -0.1055,-0.1536 -0.0182,-0.0266 -0.1062,-0.1553 -0.0179,-0.0264 -0.1069,-0.1569 -0.0175,-0.0259 -0.1076,-0.1589 -0.017,-0.0252 -0.1086,-0.1608 -0.0165,-0.0247 -0.1091,-0.1627 -0.0163,-0.0239 -0.11,-0.1644 -0.0155,-0.0238 -0.1108,-0.1663 -0.0153,-0.023 -0.1112,-0.168 -0.0149,-0.0225 -0.1121,-0.1699 -0.0144,-0.0218 -0.1126,-0.1719 -0.0142,-0.0213 -0.1133,-0.1735 -0.0137,-0.0206 -0.114,-0.1754 -0.013,-0.0202 -0.1148,-0.1771 -0.0127,-0.0194 -0.1155,-0.1787 -0.0122,-0.0192 -0.116,-0.1805 -0.0117,-0.0184 -0.1168,-0.1824 -0.0112,-0.0177 -0.1174,-0.1841 -0.0108,-0.0172 -0.1182,-0.186 -0.0103,-0.0163 -0.1186,-0.1877 -0.0098,-0.0158 -0.1194,-0.1895 -0.0093,-0.0151 -0.1199,-0.1913 -0.0091,-0.0143 -0.1203,-0.193 -0.0086,-0.0139 -0.121,-0.1946 -0.0082,-0.0131 -0.1215,-0.1966 -0.0076,-0.0122 -0.122,-0.1984 -0.0072,-0.0115 -0.1227,-0.2001 -0.0067,-0.0108 -0.1232,-0.2018 -0.0062,-0.01 -0.1239,-0.2038 -0.0058,-0.0093 -0.1244,-0.2054 -0.005,-0.0086 -0.1251,-0.2068 -0.0045,-0.0079 -0.1256,-0.2088 -0.0043,-0.0072 -0.1258,-0.2104 -0.0039,-0.0064 -0.1263,-0.2121 -0.0033,-0.0055 -0.0233,-0.0393 -0.2339,-0.395 -0.0024,-0.0041 -0.1277,-0.2171 -0.0019,-0.0033 -0.1282,-0.2188 -0.0015,-0.0024 -0.1287,-0.2207 -9e-4,-0.0017 -0.1292,-0.2222 -5e-4,-9e-4 -0.1296,-0.2239 c -2.7735,-4.804 -5.0276,-9.3585 -6.5065,-12.9949 2.4099,3.0989 5.2272,7.3284 8.0007,12.1322 l 0.1292,0.2241 4e-4,9e-4 0.1278,0.2229 0.0012,0.0017 0.1265,0.2214 0.0014,0.0029 0.1254,0.2202 0.0019,0.0036 0.1241,0.2188 0.0024,0.0046 0.1227,0.2176 0.0032,0.0052 0.1215,0.2162 0.0033,0.0062 0.1203,0.215 0.0038,0.0072 0.1189,0.2135 0.0046,0.0079 0.1176,0.2121 0.0048,0.0089 0.1165,0.2109 0.0053,0.0096 0.115,0.2094 0.0058,0.0106 0.1138,0.208 0.0062,0.0115 0.1127,0.2066 0.0067,0.0122 0.1112,0.2051 0.0069,0.0132 0.11,0.2037 0.0077,0.0139 0.1088,0.2023 0.0079,0.0148 0.1074,0.2009 0.0083,0.0155 0.1062,0.1994 0.0086,0.0166 0.105,0.1979 0.0091,0.017 0.1038,0.1965 0.0096,0.018 0.1023,0.1951 0.0098,0.0187 0.1011,0.1936 0.0104,0.0197 0.0999,0.1919 0.0105,0.0204 0.0988,0.1905 0.0107,0.0211 0.0976,0.1891 0.0112,0.0218 0.0961,0.1874 0.0118,0.0228 0.0949,0.1859 0.012,0.0233 0.0937,0.1845 0.0122,0.024 0.0923,0.1831 0.0127,0.0246 0.0913,0.1815 0.0127,0.0256 0.0901,0.1797 0.0132,0.0264 0.0886,0.1781 0.0135,0.027 0.0874,0.1767 0.0139,0.0278 0.0861,0.1749 0.0141,0.0285 0.0851,0.1735 0.0141,0.029 0.0839,0.1719 0.0146,0.0299 0.0824,0.1702 0.0149,0.0304 0.0812,0.1687 0.0151,0.0312 0.0801,0.167 0.0153,0.0316 0.0789,0.1656 0.0155,0.0324 0.0777,0.1639 0.0745,0.1575 0.0178,0.0376 0.0158,0.0338 0.0752,0.1605 0.1793,0.3852 0.0165,0.0354 0.0717,0.1558 0.0872,0.19 0.0168,0.0365 0.0692,0.1524 0.0171,0.0371 0.068,0.1508 0.017,0.0376 0.0669,0.149 0.0172,0.0382 0.0657,0.1473 0.0175,0.0389 0.0645,0.1457 0.0807,0.1831 0.0175,0.0397 0.0623,0.1424 0.0178,0.0403 0.0608,0.1406 0.0178,0.0405 0.0599,0.1393 0.0177,0.0409 0.059,0.1374 0.0177,0.0414 0.0575,0.1359 0.1476,0.3506 0.018,0.0427 0.0542,0.1306 0.018,0.0431 0.0529,0.1289 0.018,0.0437 0.052,0.127 -0.0094,-0.0448 -0.0107,-0.053 -0.0096,-0.0467 -0.0103,-0.0525 -0.0096,-0.0482 -0.0103,-0.052 -0.0096,-0.0494 -0.0098,-0.0517 -0.0381,-0.2047 -0.0099,-0.0534 -0.0088,-0.0504 -0.0099,-0.0546 -0.0086,-0.0498 -0.0098,-0.0561 -0.0084,-0.0494 -0.0098,-0.0573 -0.0082,-0.0491 -0.0175,-0.1069 -0.0098,-0.0601 -0.0077,-0.0477 -0.0098,-0.0616 -0.0072,-0.0472 -0.0098,-0.0628 -0.0069,-0.0467 -0.0099,-0.0643 -0.0067,-0.046 -0.0096,-0.0656 -0.0064,-0.0456 -0.0099,-0.0668 -0.0062,-0.0448 -0.0096,-0.0686 -0.006,-0.0441 -0.0096,-0.07 -0.0057,-0.0433 -0.0096,-0.0715 -0.0055,-0.0428 -0.0094,-0.0727 -0.0052,-0.0421 -0.0096,-0.0741 -0.005,-0.0415 -0.0094,-0.0757 -0.0048,-0.0407 -0.0091,-0.0769 -0.0048,-0.0401 -0.0091,-0.0786 -0.0043,-0.039 -0.0091,-0.0803 -0.0041,-0.0384 -0.0129,-0.1191 -0.0089,-0.0829 -0.0038,-0.0369 -0.0087,-0.0846 -0.0035,-0.0359 -0.0087,-0.0861 -0.0033,-0.0352 -0.0087,-0.0875 -0.0031,-0.0342 -0.0084,-0.089 -0.0028,-0.0335 -0.0084,-0.0906 -0.0029,-0.0326 -0.0079,-0.092 -0.0026,-0.0316 -0.008,-0.0937 -0.0026,-0.0307 -0.0077,-0.0952 -0.0024,-0.0299 -0.0074,-0.0966 -0.0021,-0.029 -0.0075,-0.0982 -0.0019,-0.0278 -0.0091,-0.1271 -0.0072,-0.1011 -0.0017,-0.0261 -0.0067,-0.1028 -0.0016,-0.0252 -0.0065,-0.1045 -0.0015,-0.0239 -0.0064,-0.106 -0.0015,-0.0232 -0.006,-0.1074 -0.0012,-0.0223 -0.0059,-0.109 -0.0012,-0.0211 -0.0058,-0.1105 -10e-4,-0.0201 -0.0052,-0.1122 -10e-4,-0.0191 -0.0053,-0.1136 -7e-4,-0.018 -0.005,-0.1153 -5e-4,-0.017 -0.0048,-0.1169 -5e-4,-0.0158 -0.0045,-0.1184 -5e-4,-0.0149 -0.0041,-0.1198 -4e-4,-0.0137 -0.0039,-0.1217 -2e-4,-0.0125 -0.0036,-0.1232 -3e-4,-0.0115 -0.0033,-0.1248 -2e-4,-0.0103 -0.0029,-0.1263 0,-0.0091 -0.0027,-0.128 -2e-4,-0.0081 -0.0022,-0.1295 -2e-4,-0.0069 -0.0017,-0.1309 -2e-4,-0.0059 -0.0015,-0.1326 0,-0.0045 -0.0012,-0.1342 0,-0.0034 -9e-4,-0.1359 0,-0.0021 -5e-4,-0.1373 0,-0.0012 0,-0.1388 c 0.0029,-2.9899 0.2742,-5.7231 0.7202,-7.8188 0.4421,2.0965 0.7081,4.8301 0.7052,7.82 l -2e-4,0.1395 0,5e-4 -7e-4,0.1387 0,7e-4 -0.0012,0.1381 0,0.0012 -0.0014,0.1373 0,0.0014 -0.002,0.1366 0,0.0019 -0.0021,0.1357 -3e-4,0.0021 -0.0024,0.135 -2e-4,0.0026 -0.0029,0.1342 0,0.0029 -0.0033,0.1332 0,0.0034 -0.0039,0.1325 0,0.0038 -0.004,0.1316 0,0.0041 -0.0046,0.1308 0,0.0043 -0.0048,0.1302 -2e-4,0.0048 -0.0051,0.1291 -2e-4,0.0051 -0.0053,0.1282 -2e-4,0.0055 -0.0058,0.1275 -2e-4,0.0057 -0.006,0.1268 -2e-4,0.006 -0.0065,0.1258 -2e-4,0.0065 -0.0068,0.1248 -4e-4,0.007 -0.007,0.1239 -2e-4,0.0072 -0.0074,0.1232 -5e-4,0.0074 -0.0077,0.1222 -5e-4,0.0079 -0.0079,0.1213 -5e-4,0.0081 -0.0081,0.1206 -5e-4,0.0084 -0.0086,0.1196 -7e-4,0.0086 -0.0087,0.1188 -7e-4,0.0089 -0.0091,0.1179 -7e-4,0.0094 -0.0094,0.1169 -7e-4,0.0096 -0.0096,0.116 -9e-4,0.0098 -0.0098,0.115 -10e-4,0.0104 -0.0103,0.114 -0.0113,0.1237 -9e-4,0.0108 -0.0108,0.1124 -10e-4,0.011 -0.011,0.1112 -0.0012,0.0115 -0.0113,0.1102 -0.0012,0.0118 -0.0115,0.1092 -0.0012,0.012 -0.0117,0.1086 -0.0012,0.012 -0.0122,0.1076 -0.0012,0.0124 -0.0122,0.1064 -0.0015,0.0127 -0.0124,0.1057 -0.0017,0.0127 -0.0127,0.1048 -0.0015,0.0131 -0.0131,0.1038 -0.0015,0.0132 -0.0132,0.1028 -0.0019,0.0137 -0.0134,0.1016 -0.0017,0.0139 -0.0136,0.1006 -0.002,0.0142 -0.0139,0.0997 -0.0019,0.0143 -0.0141,0.0988 -0.0019,0.0143 -0.0144,0.0978 -0.0165,0.1115 -0.0022,0.0148 -0.0146,0.0959 -0.0024,0.0151 -0.0149,0.0946 -0.0024,0.0154 -0.0151,0.0937 -0.0024,0.0156 -0.0153,0.0927 -0.0026,0.0156 -0.0154,0.0918 -0.0026,0.0158 -0.0156,0.0908 -0.0029,0.0158 -0.0158,0.0899 -0.0029,0.016 -0.016,0.0887 -0.0029,0.0163 -0.016,0.0877 -0.0032,0.0166 -0.0163,0.0865 -0.0031,0.0165 -0.0165,0.0858 -0.0034,0.0168 -0.0165,0.0843 -0.0034,0.0171 -0.0167,0.0834 -0.0036,0.017 -0.017,0.0826 -0.0034,0.0171 -0.0172,0.0812 0.0031,0.0077 -0.0036,-0.0046 -0.0031,0.0144 -0.0053,-0.0252 -0.0036,-0.0048 -0.0884,-0.029 -0.0075,-0.0024 -0.0891,-0.0294 -0.0072,-0.0027 -0.0899,-0.0302 -0.0074,-0.0024 -0.0906,-0.0309 -0.0072,-0.0026 -0.0913,-0.0316 -0.0072,-0.0024 -0.092,-0.0324 -0.007,-0.0024 -0.0927,-0.0328 -0.0069,-0.0027 -0.0935,-0.0335 -0.007,-0.0024 -0.0939,-0.0345 -0.007,-0.0024 -0.0946,-0.035 -0.0067,-0.0024 -0.0956,-0.0357 -0.0065,-0.0024 -0.0964,-0.0362 -0.0064,-0.0026 -0.0968,-0.0369 -0.0065,-0.0024 -0.0975,-0.0377 -0.0063,-0.0023 -0.0982,-0.0384 -0.0063,-0.0024 -0.0987,-0.0391 -0.0062,-0.0023 -0.0995,-0.0396 -0.006,-0.0024 -0.0999,-0.0402 -0.006,-0.0024 -0.1007,-0.041 -0.0059,-0.0024 -0.1014,-0.0415 -0.0058,-0.0024 -0.1018,-0.0422 -0.0058,-0.0024 -0.1023,-0.0428 -0.0058,-0.0024 -0.103,-0.0437 -0.0055,-0.0021 -0.1035,-0.0444 -0.0056,-0.0021 -0.1042,-0.0448 -0.0053,-0.0024 -0.1047,-0.0456 -0.005,-0.0021 -0.1055,-0.046 -0.005,-0.0024 -0.1059,-0.0468 -0.0051,-0.0021 -0.1064,-0.0475 -0.0048,-0.0021 -0.1071,-0.0482 -0.0048,-0.0019 -0.1076,-0.0489 -0.0045,-0.0019 -0.1081,-0.0494 -0.0043,-0.0021 -0.1088,-0.0501 -0.0043,-0.0019 -0.1091,-0.0508 -0.0043,-0.002 -0.1098,-0.0512 -0.004,-0.002 -0.11,-0.052 -0.0041,-0.0016 -0.1107,-0.0528 -0.0039,-0.0019 -0.1112,-0.0532 -0.0036,-0.0017 -0.1116,-0.0539 -0.0036,-0.0017 -0.1122,-0.0546 -0.0033,-0.0017 -0.1127,-0.0551 -0.0033,-0.0017 -0.1129,-0.0558 -0.0034,-0.0015 -0.1133,-0.0565 -0.0031,-0.0014 -0.1139,-0.0571 -0.0028,-0.0014 -0.1146,-0.0578 -0.0026,-0.0014 -0.1148,-0.0585 -0.0027,-0.0012 -0.1152,-0.0589 -0.0027,-0.0015 -0.1155,-0.0594 -0.0024,-0.0014 -0.116,-0.0602 -0.0021,-0.0012 -0.1167,-0.0609 -0.0019,-9e-4 -0.117,-0.0616 -0.0019,-0.001 -0.1172,-0.0623 -0.0017,-9e-4 -0.1176,-0.0626 -0.0017,-10e-4 -0.1179,-0.0635 -0.0015,-7e-4 -0.1183,-0.064 -0.0015,-7e-4 -0.1186,-0.0647 -0.0012,-7e-4 -0.1191,-0.0652 -10e-4,-7e-4 -0.1193,-0.0657 -10e-4,-7e-4 -0.1198,-0.0664 -7e-4,-5e-4 -0.1201,-0.0671 -5e-4,-2e-4 -0.1203,-0.0678 -4e-4,-3e-4 -0.1208,-0.0685 -3e-4,0 -0.121,-0.069 0,-3e-4 -0.1213,-0.0695 c -2.5906,-1.4925 -4.8251,-3.0895 -6.4197,-4.5207 z"
     inkscape:connector-curvature="0" />
  <path
     id="path8"
     style="fill:#0277bd;fill-rule:evenodd;fill-opacity:1"
     d="m 86.423277,103.35165 c -0.396,7.9478 -2.4633,13.0011 -9.9414,17.3183 -8.2548,4.7661 -17.9493,3.4469 -21.6394,-2.9447 -6.6849,-11.5787 1.5843,-31.791697 9.8544,-52.004697 21.6396,2.9447 43.279603,5.8896 49.964603,17.4685 3.6901,6.3913 -0.0148,15.4466 -8.2698,20.212497 -7.477303,4.3171 -12.887203,3.5807 -19.968403,-0.0499 z m -19.8417,-19.296597 c 0.4462,-2.0956 0.7175,-4.8288 0.7203,-7.8188 0.003,-2.9786 -0.2611,-5.7033 -0.7004,-7.7967 1.4791,3.6298 3.7269,8.1686 6.4907,12.9555 2.7734,4.8039 5.5905,9.0334 8.0005,12.1323 -1.4788,-3.6363 -3.7329,-8.191 -6.5063,-12.9949 -2.763,-4.7852 -5.569,-9 -7.9725,-12.0954 1.5917,1.4218 3.8104,3.0047 6.3797,4.4847 2.5906,1.4924 5.0933,2.6243 7.1311,3.2856 -1.5945,-1.4309 -3.829,-3.0282 -6.4196,-4.5207 -2.5838,-1.4885 -5.0803,-2.6181 -7.115,-3.2802 l -0.005,-0.006 0.002,0.0051 -0.0139,-0.0045 0.0193,0.0173 0.002,0.0056 c -0.445,2.0946 -0.7157,4.8246 -0.7188,7.8109 -0.003,2.99 0.2633,5.7237 0.7052,7.8202 z"
     inkscape:connector-curvature="0" />
  <path
     id="path10"
     style="fill:#0277bd;fill-rule:evenodd;fill-opacity:1"
     d="m 20.182077,86.452853 c -7.948,-0.3962 -13.0011004,-2.4635 -17.3185004,-9.9413 -4.7659,-8.2554 -3.44690003,-17.9496 2.9449,-21.6397 11.5787004,-6.685 31.7917004,1.5843 52.0047004,9.8546 -2.9446,21.6397 -5.8898,43.279097 -17.4685,49.964297 -6.3913,3.6902 -15.4466,-0.0144 -20.2127,-8.2698 -4.3169,-7.477197 -3.5807,-12.886797 0.0501,-19.968097 z m 19.5546,-20.1183 c 2.0956,0.4459 4.8288,0.7172 7.8188,0.72 2.9783,0.0031 5.7027,-0.2611 7.7961,-0.7001 -3.6298,1.4791 -8.1686,3.7267 -12.9552,6.4904 -4.8039,2.7735 -9.0331,5.5908 -12.1323,8.0006 3.6366,-1.4789 8.191,-3.733 12.9952,-6.5064 4.7846,-2.7627 8.9988,-5.5681 12.0943,-7.9716 -1.4213,1.5919 -3.0042,3.81 -4.4836,6.3788 -1.4924,2.5906 -2.6243,5.0933 -3.2856,7.1311 1.4309,-1.5945 3.0282,-3.8287 4.5207,-6.4196 1.4885,-2.5835 2.6175,-5.0794 3.2797,-7.1144 l 0.0065,-0.0051 -0.0054,0.0023 0.0045,-0.0142 -0.0173,0.0193 -0.0053,0.0022 c -2.0948,-0.445 -4.8249,-0.7157 -7.8112,-0.7185 -2.9897,-0.0029 -5.7234,0.263 -7.8199,0.7052 z"
     inkscape:connector-curvature="0" />
  <path
     id="path12"
     style="fill:#0277bd;fill-rule:evenodd;fill-opacity:1"
     d="m 104.50658,36.997153 c 7.9478,0.3963 13.0008,2.4633 17.3183,9.9414 4.7659,8.255 3.4469,17.9492 -2.9446,21.6394 -11.5787,6.6849 -31.792003,-1.5843 -52.005003,-9.8544 2.9446,-21.6397 5.8898,-43.2794 17.4685,-49.9645998 6.3915,-3.6899 15.4465,0.0147 20.212703,8.2697998 4.3172,7.4775 3.581,12.8871 -0.0499,19.9684 z m -18.563503,19.6407 c -2.0957,-0.4462 -4.8288,-0.7172 -7.8188,-0.72 -2.9781,-0.0032 -5.7022,0.2607 -7.7953,0.6998 3.6298,-1.4791 8.168,-3.727 12.9541,-6.4902 4.8038,-2.7734 9.0334,-5.5907 12.1322,-8.0005 -3.6362,1.4789 -8.1909,3.733 -12.9948,6.5064 -4.7855,2.7629 -9.0009,5.5692 -12.0963,7.973 1.4221,-1.5917 3.0053,-3.8106 4.4855,-6.3802 1.4925,-2.5909 2.6244,-5.0933 3.2857,-7.1314 -1.431,1.5947 -3.0283,3.829 -4.5207,6.4199 -1.4885,2.5838 -2.6181,5.0802 -3.2803,7.1149 l -0.006,0.0046 0.005,-0.002 -0.005,0.0136 0.0168,-0.0187 0.007,-0.0026 c 2.0948,0.4451 4.8246,0.7158 7.8106,0.7186 2.99,0.0029 5.7237,-0.263 7.8202,-0.7052 z"
     inkscape:connector-curvature="0" />
  <g
     id="g4228"
     transform="translate(7.3291021,2.3752123e-7)"
     style="fill:#0277bd;fill-opacity:1">
    <path
       style="font-style:normal;font-variant:normal;font-weight:normal;font-stretch:normal;font-size:medium;line-height:100%;font-family:'URW Gothic L';-inkscape-font-specification:'URW Gothic L';letter-spacing:1.14236319px;word-spacing:0px;fill:#0277bd;fill-opacity:1;stroke:none;stroke-width:1px;stroke-linecap:butt;stroke-linejoin:miter;stroke-opacity:1"
       d="m 142.11795,31.960524 0,80.536606 8.06456,0 0,-31.168427 c 5.23107,7.62864 13.29563,11.66092 23.21286,11.66092 17.76382,0 31.60435,-13.62257 31.60435,-31.059453 0,-17.763827 -13.62257,-31.386393 -31.38639,-31.386393 -10.13519,0 -18.41771,4.14126 -23.43082,11.660917 l 0,-10.24417 -8.06456,0 z m 31.16843,5.993929 c 13.40461,0 23.5398,10.24417 23.5398,23.975717 0,13.404605 -10.13519,23.648773 -23.43081,23.648773 -13.62257,0 -23.75776,-10.353149 -23.75776,-24.084695 0,-13.186644 10.46213,-23.539795 23.64877,-23.539795 z"
       id="path4198"
       inkscape:connector-curvature="0" />
    <path
       style="font-style:normal;font-variant:normal;font-weight:normal;font-stretch:normal;font-size:medium;line-height:100%;font-family:'URW Gothic L';-inkscape-font-specification:'URW Gothic L';letter-spacing:1.14236319px;word-spacing:0px;fill:#0277bd;fill-opacity:1;stroke:none;stroke-width:1px;stroke-linecap:butt;stroke-linejoin:miter;stroke-opacity:1"
       d="m 278.24803,31.960524 -8.06456,0 0,10.571111 c -5.88495,-8.28252 -13.18665,-11.987858 -23.5398,-11.987858 -17.8728,0 -31.38639,13.513586 -31.38639,31.386393 0,17.763823 13.62257,31.059453 31.93129,31.059453 10.13519,0 16.67403,-3.3784 22.9949,-11.87888 l 0,10.46213 8.06456,0 0,-59.612349 z m -31.3864,5.993929 c 13.07767,0 23.32184,10.24417 23.32184,23.539795 0,13.513585 -10.02621,24.084695 -22.88591,24.084695 -13.51359,0 -23.86674,-10.57111 -23.86674,-24.193676 0,-12.968683 10.46213,-23.430814 23.43081,-23.430814 z"
       id="path4200"
       inkscape:connector-curvature="0" />
    <path
       style="font-style:normal;font-variant:normal;font-weight:normal;font-stretch:normal;font-size:medium;line-height:100%;font-family:'URW Gothic L';-inkscape-font-specification:'URW Gothic L';letter-spacing:1.14236319px;word-spacing:0px;fill:#0277bd;fill-opacity:1;stroke:none;stroke-width:1px;stroke-linecap:butt;stroke-linejoin:miter;stroke-opacity:1"
       d="m 300.48833,91.572873 8.06456,0 0,-52.310653 13.4046,0 0,-7.301696 -13.4046,0 0,-20.924262 -8.06456,0 0,20.924262 -12.8597,0 0,7.301696 12.8597,0 0,52.310653 z"
       id="path4202"
       inkscape:connector-curvature="0" />
    <path
       style="font-style:normal;font-variant:normal;font-weight:normal;font-stretch:normal;font-size:medium;line-height:100%;font-family:'URW Gothic L';-inkscape-font-specification:'URW Gothic L';letter-spacing:1.14236319px;word-spacing:0px;fill:#0277bd;fill-opacity:1;stroke:none;stroke-width:1px;stroke-linecap:butt;stroke-linejoin:miter;stroke-opacity:1"
       d="m 331.36534,31.960524 0,80.536606 8.06456,0 0,-31.168427 c 5.23107,7.62864 13.29563,11.66092 23.21286,11.66092 17.76382,0 31.60435,-13.62257 31.60435,-31.059453 0,-17.763827 -13.62257,-31.386393 -31.38639,-31.386393 -10.13519,0 -18.41771,4.14126 -23.43082,11.660917 l 0,-10.24417 -8.06456,0 z m 31.16844,5.993929 c 13.4046,0 23.53979,10.24417 23.53979,23.975717 0,13.404605 -10.13519,23.648773 -23.43081,23.648773 -13.62257,0 -23.75776,-10.353149 -23.75776,-24.084695 0,-13.186644 10.46213,-23.539795 23.64878,-23.539795 z"
       id="path4204"
       inkscape:connector-curvature="0" />
    <path
       style="font-style:normal;font-variant:normal;font-weight:normal;font-stretch:normal;font-size:medium;line-height:100%;font-family:'URW Gothic L';-inkscape-font-specification:'URW Gothic L';letter-spacing:1.14236319px;word-spacing:0px;fill:#0277bd;fill-opacity:1;stroke:none;stroke-width:1px;stroke-linecap:butt;stroke-linejoin:miter;stroke-opacity:1"
       d="m 467.49543,31.960524 -8.06456,0 0,10.571111 c -5.88495,-8.28252 -13.18664,-11.987858 -23.53979,-11.987858 -17.87281,0 -31.38639,13.513586 -31.38639,31.386393 0,17.763823 13.62256,31.059453 31.93129,31.059453 10.13519,0 16.67402,-3.3784 22.99489,-11.87888 l 0,10.46213 8.06456,0 0,-59.612349 z m -31.38639,5.993929 c 13.07766,0 23.32183,10.24417 23.32183,23.539795 0,13.513585 -10.02621,24.084695 -22.88591,24.084695 -13.51358,0 -23.86673,-10.57111 -23.86673,-24.193676 0,-12.968683 10.46213,-23.430814 23.43081,-23.430814 z"
       id="path4206"
       inkscape:connector-curvature="0" />
    <path
       style="font-style:normal;font-variant:normal;font-weight:normal;font-stretch:normal;font-size:medium;line-height:100%;font-family:'URW Gothic L';-inkscape-font-specification:'URW Gothic L';letter-spacing:1.14236319px;word-spacing:0px;fill:#0277bd;fill-opacity:1;stroke:none;stroke-width:1px;stroke-linecap:butt;stroke-linejoin:miter;stroke-opacity:1"
       d="m 489.73572,91.572873 8.06456,0 0,-52.310653 13.4046,0 0,-7.301696 -13.4046,0 0,-20.924262 -8.06456,0 0,20.924262 -12.8597,0 0,7.301696 12.8597,0 0,52.310653 z"
       id="path4208"
       inkscape:connector-curvature="0" />
  </g>
</svg>
