<?xml version="1.0" encoding="UTF-8" standalone="no"?>
<!-- Created with Inkscape (http://www.inkscape.org/) -->

<svg
   xmlns:dc="http://purl.org/dc/elements/1.1/"
   xmlns:cc="http://creativecommons.org/ns#"
   xmlns:rdf="http://www.w3.org/1999/02/22-rdf-syntax-ns#"
   xmlns:svg="http://www.w3.org/2000/svg"
   xmlns="http://www.w3.org/2000/svg"
   xmlns:sodipodi="http://sodipodi.sourceforge.net/DTD/sodipodi-0.dtd"
   xmlns:inkscape="http://www.inkscape.org/namespaces/inkscape"
   width="95.417519mm"
   height="94.533775mm"
   viewBox="0 0 338.09357 334.96218"
   id="svg4140"
   version="1.1"
   inkscape:version="0.91 r13725"
   sodipodi:docname="logo-simple.svg">
  <defs
     id="defs4142" />
  <sodipodi:namedview
     id="base"
     pagecolor="#ffffff"
     bordercolor="#666666"
     borderopacity="1.0"
     inkscape:pageopacity="0.0"
     inkscape:pageshadow="2"
     inkscape:zoom="0.7"
     inkscape:cx="194.8245"
     inkscape:cy="103.01202"
     inkscape:document-units="px"
     inkscape:current-layer="layer1"
     showgrid="false"
     fit-margin-top="0"
     fit-margin-left="0"
     fit-margin-right="0"
     fit-margin-bottom="0"
     inkscape:window-width="1366"
     inkscape:window-height="703"
     inkscape:window-x="0"
     inkscape:window-y="0"
     inkscape:window-maximized="1" />
  <metadata
     id="metadata4145">
    <rdf:RDF>
      <cc:Work
         rdf:about="">
        <dc:format>image/svg+xml</dc:format>
        <dc:type
           rdf:resource="http://purl.org/dc/dcmitype/StillImage" />
        <dc:title></dc:title>
      </cc:Work>
    </rdf:RDF>
  </metadata>
  <g
     inkscape:label="Layer 1"
     inkscape:groupmode="layer"
     id="layer1"
     transform="translate(-219.40187,-62.814839)">
    <g
       id="g4823"
       transform="matrix(1.0932516,0,0,1.0932516,-460.62252,-28.133709)">
      <g
         transform="matrix(2.4802216,0,0,2.4802216,-888.83889,-314.47227)"
         id="g4817">
        <path
           d="m 646.79715,180.51566 c 0.3962,-7.9477 2.4636,-13.001 9.9414,-17.3183 8.2552,-4.7661 17.9495,-3.4468 21.6396,2.9446 6.685,11.5787 -1.5843,31.7919 -9.8546,52.0048 -21.6394,-2.9445 -43.2792,-5.8896 -49.9642,-17.4682 -3.6901,-6.3917 0.0146,-15.4469 8.2696,-20.2128 7.4772,-4.317 12.8871,-3.5808 19.9682,0.0499 z m 5.8858,26.4805 c 2.038,0.6614 4.5407,1.7931 7.1313,3.2856 l 0.1207,0.0697 5e-4,3e-4 0.1196,0.0697 10e-4,5e-4 0.1188,0.0695 10e-4,9e-4 0.1179,0.0693 0.002,0.001 0.117,0.069 0.002,0.002 0.1158,0.069 0.003,0.002 0.1148,0.069 0.003,0.002 0.1138,0.0688 0.004,0.002 0.1129,0.0686 0.004,0.002 0.1119,0.0685 0.004,0.003 0.1107,0.0683 0.005,0.003 0.1098,0.0681 0.005,0.003 0.1085,0.0679 0.006,0.004 0.1076,0.0676 0.006,0.004 0.1067,0.0673 0.006,0.004 0.1057,0.0673 0.007,0.004 0.1047,0.0671 0.007,0.005 0.1037,0.0668 0.008,0.005 0.1026,0.0667 0.008,0.005 0.1016,0.0662 0.009,0.006 0.1004,0.0659 0.009,0.006 0.0995,0.0657 0.009,0.006 0.0985,0.0657 0.01,0.006 0.0973,0.0652 0.0101,0.007 0.0963,0.065 0.0103,0.007 0.0954,0.0647 0.0105,0.007 0.0944,0.0642 0.0111,0.008 0.0932,0.0642 0.0115,0.008 0.0923,0.0637 0.0115,0.008 0.0913,0.0635 0.012,0.008 0.0903,0.0633 0.0122,0.009 0.0892,0.0628 0.0124,0.009 0.0882,0.0625 0.013,0.009 0.0872,0.0623 0.0132,0.009 0.086,0.0618 0.0134,0.01 0.0851,0.0616 0.0139,0.01 0.0839,0.0613 0.0141,0.0101 0.0829,0.0608 0.0144,0.0106 0.082,0.0606 0.0146,0.0106 0.081,0.0601 0.0146,0.011 0.0801,0.0599 0.0151,0.0113 0.0788,0.0594 0.0153,0.0115 0.0779,0.0592 0.0154,0.0118 0.0769,0.0587 0.0158,0.012 0.0757,0.0585 0.0161,0.0122 0.0748,0.058 0.016,0.0124 0.0738,0.0578 0.0166,0.0127 0.0726,0.0573 0.0165,0.0129 0.0719,0.0568 0.0168,0.0132 0.0707,0.0565 0.0168,0.0135 0.0697,0.0563 0.0173,0.0136 0.0685,0.0556 0.0173,0.0139 0.0678,0.0554 0.0172,0.0141 0.0669,0.0549 0.0175,0.0144 0.0656,0.0546 0.0178,0.0147 0.0647,0.0539 0.0177,0.0148 0.0638,0.0537 0.0177,0.0151 0.0628,0.0532 0.018,0.0154 0.0618,0.0529 0.018,0.0154 0.0606,0.0524 0.0182,0.0156 0.0599,0.052 0.0182,0.0161 0.0588,0.0515 0.0182,0.0161 0.0577,0.051 0.0185,0.0165 0.0568,0.0506 -0.0868,-0.1119 -0.0261,-0.034 -0.1136,-0.1477 -0.0884,-0.1152 -0.0259,-0.0338 -0.0892,-0.1172 -0.0254,-0.0338 -0.0901,-0.1189 -0.0251,-0.0333 -0.0909,-0.121 -0.0249,-0.0331 -0.0918,-0.1227 -0.0247,-0.0328 -0.0925,-0.1244 -0.0242,-0.0326 -0.0934,-0.1263 -0.024,-0.0323 -0.0942,-0.128 -0.0235,-0.0321 -0.0951,-0.1299 -0.0232,-0.0319 -0.0959,-0.1315 -0.023,-0.0317 -0.0966,-0.1335 -0.0225,-0.0311 -0.0976,-0.1352 -0.0222,-0.0309 -0.0983,-0.1371 -0.0218,-0.0304 -0.0992,-0.139 -0.0216,-0.03 -0.0999,-0.1409 -0.0211,-0.0297 -0.1007,-0.1426 -0.0206,-0.0292 -0.1016,-0.1445 -0.0204,-0.0288 -0.1023,-0.1464 -0.0199,-0.0283 -0.103,-0.1481 -0.0197,-0.028 -0.1037,-0.1501 -0.0192,-0.0275 -0.1047,-0.1517 -0.0187,-0.0271 -0.1055,-0.1536 -0.0182,-0.0266 -0.1062,-0.1553 -0.0179,-0.0264 -0.1069,-0.1569 -0.0175,-0.0259 -0.1076,-0.1589 -0.017,-0.0252 -0.1086,-0.1608 -0.0165,-0.0247 -0.1091,-0.1627 -0.0163,-0.0239 -0.11,-0.1644 -0.0155,-0.0238 -0.1108,-0.1663 -0.0153,-0.023 -0.1112,-0.168 -0.0149,-0.0225 -0.1121,-0.1699 -0.0144,-0.0218 -0.1126,-0.1719 -0.0142,-0.0213 -0.1133,-0.1735 -0.0137,-0.0206 -0.114,-0.1754 -0.013,-0.0202 -0.1148,-0.1771 -0.0127,-0.0194 -0.1155,-0.1787 -0.0122,-0.0192 -0.116,-0.1805 -0.0117,-0.0184 -0.1168,-0.1824 -0.0112,-0.0177 -0.1174,-0.1841 -0.0108,-0.0172 -0.1182,-0.186 -0.0103,-0.0163 -0.1186,-0.1877 -0.01,-0.0158 -0.1194,-0.1895 -0.009,-0.0151 -0.1199,-0.1913 -0.009,-0.0143 -0.1203,-0.193 -0.009,-0.0139 -0.121,-0.1946 -0.008,-0.0131 -0.1215,-0.1966 -0.008,-0.0122 -0.122,-0.1984 -0.007,-0.0115 -0.1227,-0.2001 -0.007,-0.0108 -0.1232,-0.2018 -0.006,-0.01 -0.1239,-0.2038 -0.006,-0.009 -0.1244,-0.2054 -0.005,-0.009 -0.1251,-0.2068 -0.005,-0.008 -0.1256,-0.2088 -0.004,-0.007 -0.1258,-0.2104 -0.004,-0.006 -0.1263,-0.2121 -0.003,-0.006 -0.0233,-0.0393 -0.2339,-0.395 -0.002,-0.004 -0.1277,-0.2171 -0.002,-0.003 -0.1282,-0.2188 -0.002,-0.002 -0.1287,-0.2207 -9e-4,-0.002 -0.1292,-0.2222 -5e-4,-9e-4 -0.1296,-0.2239 c -2.7735,-4.804 -5.0276,-9.3585 -6.5065,-12.9949 2.4099,3.0989 5.2272,7.3284 8.0007,12.1322 l 0.1292,0.2241 4e-4,9e-4 0.1278,0.2229 10e-4,0.002 0.1265,0.2214 0.001,0.003 0.1254,0.2202 0.002,0.004 0.1241,0.2188 0.002,0.005 0.1227,0.2176 0.003,0.005 0.1215,0.2162 0.003,0.006 0.1203,0.215 0.004,0.007 0.1189,0.2135 0.005,0.008 0.1176,0.2121 0.005,0.009 0.1165,0.2109 0.005,0.01 0.115,0.2094 0.006,0.0106 0.1138,0.208 0.006,0.0115 0.1127,0.2066 0.007,0.0122 0.1112,0.2051 0.007,0.0132 0.11,0.2037 0.008,0.0139 0.1088,0.2023 0.008,0.0148 0.1074,0.2009 0.008,0.0155 0.1062,0.1994 0.009,0.0166 0.105,0.1979 0.009,0.017 0.1038,0.1965 0.01,0.018 0.1023,0.1951 0.01,0.0187 0.1011,0.1936 0.0104,0.0197 0.0999,0.1919 0.0105,0.0204 0.0988,0.1905 0.0107,0.0211 0.0976,0.1891 0.0112,0.0218 0.0961,0.1874 0.0118,0.0228 0.0949,0.1859 0.012,0.0233 0.0937,0.1845 0.0122,0.024 0.0923,0.1831 0.0127,0.0246 0.0913,0.1815 0.0127,0.0256 0.0901,0.1797 0.0132,0.0264 0.0886,0.1781 0.0135,0.027 0.0874,0.1767 0.0139,0.0278 0.0861,0.1749 0.0141,0.0285 0.0851,0.1735 0.0141,0.029 0.0839,0.1719 0.0146,0.0299 0.0824,0.1702 0.0149,0.0304 0.0812,0.1687 0.0151,0.0312 0.0801,0.167 0.0153,0.0316 0.0789,0.1656 0.0155,0.0324 0.0777,0.1639 0.0745,0.1575 0.0178,0.0376 0.0158,0.0338 0.0752,0.1605 0.1793,0.3852 0.0165,0.0354 0.0717,0.1558 0.0872,0.19 0.0168,0.0365 0.0692,0.1524 0.0171,0.0371 0.068,0.1508 0.017,0.0376 0.0669,0.149 0.0172,0.0382 0.0657,0.1473 0.0175,0.0389 0.0645,0.1457 0.0807,0.1831 0.0175,0.0397 0.0623,0.1424 0.0178,0.0403 0.0608,0.1406 0.0178,0.0405 0.0599,0.1393 0.0177,0.0409 0.059,0.1374 0.0177,0.0414 0.0575,0.1359 0.1476,0.3506 0.018,0.0427 0.0542,0.1306 0.018,0.0431 0.0529,0.1289 0.018,0.0437 0.052,0.127 -0.009,-0.0448 -0.0107,-0.053 -0.01,-0.0467 -0.0103,-0.0525 -0.01,-0.0482 -0.0103,-0.052 -0.01,-0.0494 -0.01,-0.0517 -0.0381,-0.2047 -0.01,-0.0534 -0.009,-0.0504 -0.01,-0.0546 -0.009,-0.0498 -0.01,-0.0561 -0.008,-0.0494 -0.01,-0.0573 -0.008,-0.0491 -0.0175,-0.1069 -0.01,-0.0601 -0.008,-0.0477 -0.01,-0.0616 -0.007,-0.0472 -0.01,-0.0628 -0.007,-0.0467 -0.01,-0.0643 -0.007,-0.046 -0.01,-0.0656 -0.006,-0.0456 -0.01,-0.0668 -0.006,-0.0448 -0.01,-0.0686 -0.006,-0.0441 -0.01,-0.07 -0.006,-0.0433 -0.01,-0.0715 -0.005,-0.0428 -0.009,-0.0727 -0.005,-0.0421 -0.01,-0.0741 -0.005,-0.0415 -0.009,-0.0757 -0.005,-0.0407 -0.009,-0.0769 -0.005,-0.0401 -0.009,-0.0786 -0.004,-0.039 -0.009,-0.0803 -0.004,-0.0384 -0.0129,-0.1191 -0.009,-0.0829 -0.004,-0.0369 -0.009,-0.0846 -0.003,-0.0359 -0.009,-0.0861 -0.003,-0.0352 -0.009,-0.0875 -0.003,-0.0342 -0.008,-0.089 -0.003,-0.0335 -0.008,-0.0906 -0.003,-0.0326 -0.008,-0.092 -0.003,-0.0316 -0.008,-0.0937 -0.003,-0.0307 -0.008,-0.0952 -0.002,-0.0299 -0.007,-0.0966 -0.002,-0.029 -0.007,-0.0982 -0.002,-0.0278 -0.009,-0.1271 -0.007,-0.1011 -0.002,-0.0261 -0.007,-0.1028 -0.002,-0.0252 -0.007,-0.1045 -10e-4,-0.0239 -0.006,-0.106 -0.001,-0.0232 -0.006,-0.1074 -10e-4,-0.0223 -0.006,-0.109 -0.001,-0.0211 -0.006,-0.1105 -10e-4,-0.0201 -0.005,-0.1122 -10e-4,-0.0191 -0.005,-0.1136 -7e-4,-0.018 -0.005,-0.1153 -5e-4,-0.017 -0.005,-0.1169 -5e-4,-0.0158 -0.005,-0.1184 -5e-4,-0.0149 -0.004,-0.1198 -4e-4,-0.0137 -0.004,-0.1217 -2e-4,-0.0125 -0.004,-0.1232 -3e-4,-0.0115 -0.003,-0.1248 -2e-4,-0.0103 -0.003,-0.1263 0,-0.009 -0.003,-0.128 -2e-4,-0.008 -0.002,-0.1295 -2e-4,-0.007 -0.002,-0.1309 -2e-4,-0.006 -0.002,-0.1326 0,-0.005 -10e-4,-0.1342 0,-0.003 -9e-4,-0.1359 0,-0.002 -5e-4,-0.1373 0,-10e-4 0,-0.1388 c 0.003,-2.9899 0.2742,-5.7231 0.7202,-7.8188 0.4421,2.0965 0.7081,4.8301 0.7052,7.82 l -2e-4,0.1395 0,5e-4 -7e-4,0.1387 0,7e-4 -10e-4,0.1381 0,0.001 -10e-4,0.1373 0,0.001 -0.002,0.1366 0,0.002 -0.002,0.1357 -3e-4,0.002 -0.002,0.135 -2e-4,0.003 -0.003,0.1342 0,0.003 -0.003,0.1332 0,0.003 -0.004,0.1325 0,0.004 -0.004,0.1316 0,0.004 -0.005,0.1308 0,0.004 -0.005,0.1302 -2e-4,0.005 -0.005,0.1291 -2e-4,0.005 -0.005,0.1282 -2e-4,0.006 -0.006,0.1275 -2e-4,0.006 -0.006,0.1268 -2e-4,0.006 -0.006,0.1258 -2e-4,0.007 -0.007,0.1248 -4e-4,0.007 -0.007,0.1239 -2e-4,0.007 -0.007,0.1232 -5e-4,0.007 -0.008,0.1222 -5e-4,0.008 -0.008,0.1213 -5e-4,0.008 -0.008,0.1206 -5e-4,0.008 -0.009,0.1196 -7e-4,0.009 -0.009,0.1188 -7e-4,0.009 -0.009,0.1179 -7e-4,0.009 -0.009,0.1169 -7e-4,0.01 -0.01,0.116 -9e-4,0.01 -0.01,0.115 -10e-4,0.0104 -0.0103,0.114 -0.0113,0.1237 -9e-4,0.0108 -0.0108,0.1124 -10e-4,0.011 -0.011,0.1112 -10e-4,0.0115 -0.0113,0.1102 -10e-4,0.0118 -0.0115,0.1092 -10e-4,0.012 -0.0117,0.1086 -10e-4,0.012 -0.0122,0.1076 -10e-4,0.0124 -0.0122,0.1064 -10e-4,0.0127 -0.0124,0.1057 -0.002,0.0127 -0.0127,0.1048 -0.002,0.0131 -0.0131,0.1038 -10e-4,0.0132 -0.0132,0.1028 -0.002,0.0137 -0.0134,0.1016 -0.002,0.0139 -0.0136,0.1006 -0.002,0.0142 -0.0139,0.0997 -0.002,0.0143 -0.0141,0.0988 -0.002,0.0143 -0.0144,0.0978 -0.0165,0.1115 -0.002,0.0148 -0.0146,0.0959 -0.002,0.0151 -0.0149,0.0946 -0.002,0.0154 -0.0151,0.0937 -0.002,0.0156 -0.0153,0.0927 -0.003,0.0156 -0.0154,0.0918 -0.003,0.0158 -0.0156,0.0908 -0.003,0.0158 -0.0158,0.0899 -0.003,0.016 -0.016,0.0887 -0.003,0.0163 -0.016,0.0877 -0.003,0.0166 -0.0163,0.0865 -0.003,0.0165 -0.0165,0.0858 -0.003,0.0168 -0.0165,0.0843 -0.003,0.0171 -0.0167,0.0834 -0.004,0.017 -0.017,0.0826 -0.003,0.0171 -0.0172,0.0812 0.003,0.008 -0.004,-0.005 -0.003,0.0144 -0.005,-0.0252 -0.004,-0.005 -0.0884,-0.029 -0.007,-0.002 -0.0891,-0.0294 -0.007,-0.003 -0.0899,-0.0302 -0.007,-0.002 -0.0906,-0.0309 -0.007,-0.003 -0.0913,-0.0316 -0.007,-0.002 -0.092,-0.0324 -0.007,-0.002 -0.0927,-0.0328 -0.007,-0.003 -0.0935,-0.0335 -0.007,-0.002 -0.0939,-0.0345 -0.007,-0.002 -0.0946,-0.035 -0.007,-0.002 -0.0956,-0.0357 -0.006,-0.002 -0.0964,-0.0362 -0.006,-0.003 -0.0968,-0.0369 -0.006,-0.002 -0.0975,-0.0377 -0.006,-0.002 -0.0982,-0.0384 -0.006,-0.002 -0.0987,-0.0391 -0.006,-0.002 -0.0995,-0.0396 -0.006,-0.002 -0.0999,-0.0402 -0.006,-0.002 -0.1007,-0.041 -0.006,-0.002 -0.1014,-0.0415 -0.006,-0.002 -0.1018,-0.0422 -0.006,-0.002 -0.1023,-0.0428 -0.006,-0.002 -0.103,-0.0437 -0.006,-0.002 -0.1035,-0.0444 -0.006,-0.002 -0.1042,-0.0448 -0.005,-0.002 -0.1047,-0.0456 -0.005,-0.002 -0.1055,-0.046 -0.005,-0.002 -0.1059,-0.0468 -0.005,-0.002 -0.1064,-0.0475 -0.005,-0.002 -0.1071,-0.0482 -0.005,-0.002 -0.1076,-0.0489 -0.005,-0.002 -0.1081,-0.0494 -0.004,-0.002 -0.1088,-0.0501 -0.004,-0.002 -0.1091,-0.0508 -0.004,-0.002 -0.1098,-0.0512 -0.004,-0.002 -0.11,-0.052 -0.004,-0.002 -0.1107,-0.0528 -0.004,-0.002 -0.1112,-0.0532 -0.004,-0.002 -0.1116,-0.0539 -0.004,-0.002 -0.1122,-0.0546 -0.003,-0.002 -0.1127,-0.0551 -0.003,-0.002 -0.1129,-0.0558 -0.003,-0.002 -0.1133,-0.0565 -0.003,-0.001 -0.1139,-0.0571 -0.003,-0.001 -0.1146,-0.0578 -0.003,-0.001 -0.1148,-0.0585 -0.003,-0.001 -0.1152,-0.0589 -0.003,-0.001 -0.1155,-0.0594 -0.002,-0.001 -0.116,-0.0602 -0.002,-0.001 -0.1167,-0.0609 -0.002,-9e-4 -0.117,-0.0616 -0.002,-10e-4 -0.1172,-0.0623 -0.002,-9e-4 -0.1176,-0.0626 -0.002,-10e-4 -0.1179,-0.0635 -10e-4,-7e-4 -0.1183,-0.064 -0.002,-7e-4 -0.1186,-0.0647 -10e-4,-7e-4 -0.1191,-0.0652 -10e-4,-7e-4 -0.1193,-0.0657 -10e-4,-7e-4 -0.1198,-0.0664 -7e-4,-5e-4 -0.1201,-0.0671 -5e-4,-2e-4 -0.1203,-0.0678 -4e-4,-3e-4 -0.1208,-0.0685 -3e-4,0 -0.121,-0.069 0,-3e-4 -0.1213,-0.0695 c -2.5906,-1.4925 -4.8251,-3.0895 -6.4197,-4.5207 z"
           style="fill:#003c89;fill-rule:evenodd"
           id="path4772"
           inkscape:connector-curvature="0" />
        <path
           d="m 695.58615,263.68536 c -0.396,7.9478 -2.4633,13.0011 -9.9414,17.3183 -8.2548,4.7661 -17.9493,3.4469 -21.6394,-2.9447 -6.6849,-11.5787 1.5843,-31.7917 9.8544,-52.0047 21.6396,2.9447 43.2796,5.8896 49.9646,17.4685 3.6901,6.3913 -0.0148,15.4466 -8.2698,20.2125 -7.4773,4.3171 -12.8872,3.5807 -19.9684,-0.0499 z m -19.8417,-19.2966 c 0.4462,-2.0956 0.7175,-4.8288 0.7203,-7.8188 0.003,-2.9786 -0.2611,-5.7033 -0.7004,-7.7967 1.4791,3.6298 3.7269,8.1686 6.4907,12.9555 2.7734,4.8039 5.5905,9.0334 8.0005,12.1323 -1.4788,-3.6363 -3.7329,-8.191 -6.5063,-12.9949 -2.763,-4.7852 -5.569,-9 -7.9725,-12.0954 1.5917,1.4218 3.8104,3.0047 6.3797,4.4847 2.5906,1.4924 5.0933,2.6243 7.1311,3.2856 -1.5945,-1.4309 -3.829,-3.0282 -6.4196,-4.5207 -2.5838,-1.4885 -5.0803,-2.6181 -7.115,-3.2802 l -0.005,-0.006 0.002,0.005 -0.0139,-0.005 0.0193,0.0173 0.002,0.006 c -0.445,2.0946 -0.7157,4.8246 -0.7188,7.8109 -0.003,2.99 0.2633,5.7237 0.7052,7.8202 z"
           style="fill:#003c89;fill-rule:evenodd"
           id="path4774"
           inkscape:connector-curvature="0" />
        <path
           d="m 629.34495,246.78656 c -7.948,-0.3962 -13.0011,-2.4635 -17.3185,-9.9413 -4.7659,-8.2554 -3.4469,-17.9496 2.9449,-21.6397 11.5787,-6.685 31.7917,1.5843 52.0047,9.8546 -2.9446,21.6397 -5.8898,43.2791 -17.4685,49.9643 -6.3913,3.6902 -15.4466,-0.0144 -20.2127,-8.2698 -4.3169,-7.4772 -3.5807,-12.8868 0.0501,-19.9681 z m 19.5546,-20.1183 c 2.0956,0.4459 4.8288,0.7172 7.8188,0.72 2.9783,0.003 5.7027,-0.2611 7.7961,-0.7001 -3.6298,1.4791 -8.1686,3.7267 -12.9552,6.4904 -4.8039,2.7735 -9.0331,5.5908 -12.1323,8.0006 3.6366,-1.4789 8.191,-3.733 12.9952,-6.5064 4.7846,-2.7627 8.9988,-5.5681 12.0943,-7.9716 -1.4213,1.5919 -3.0042,3.81 -4.4836,6.3788 -1.4924,2.5906 -2.6243,5.0933 -3.2856,7.1311 1.4309,-1.5945 3.0282,-3.8287 4.5207,-6.4196 1.4885,-2.5835 2.6175,-5.0794 3.2797,-7.1144 l 0.007,-0.005 -0.005,0.002 0.005,-0.0142 -0.0173,0.0193 -0.005,0.002 c -2.0948,-0.445 -4.8249,-0.7157 -7.8112,-0.7185 -2.9897,-0.003 -5.7234,0.263 -7.8199,0.7052 z"
           style="fill:#003c89;fill-rule:evenodd"
           id="path4776"
           inkscape:connector-curvature="0" />
        <path
           d="m 713.66945,197.33086 c 7.9478,0.3963 13.0008,2.4633 17.3183,9.9414 4.7659,8.255 3.4469,17.9492 -2.9446,21.6394 -11.5787,6.6849 -31.792,-1.5843 -52.005,-9.8544 2.9446,-21.6397 5.8898,-43.2794 17.4685,-49.9646 6.3915,-3.6899 15.4465,0.0147 20.2127,8.2698 4.3172,7.4775 3.581,12.8871 -0.0499,19.9684 z m -18.5635,19.6407 c -2.0957,-0.4462 -4.8288,-0.7172 -7.8188,-0.72 -2.9781,-0.003 -5.7022,0.2607 -7.7953,0.6998 3.6298,-1.4791 8.168,-3.727 12.9541,-6.4902 4.8038,-2.7734 9.0334,-5.5907 12.1322,-8.0005 -3.6362,1.4789 -8.1909,3.733 -12.9948,6.5064 -4.7855,2.7629 -9.0009,5.5692 -12.0963,7.973 1.4221,-1.5917 3.0053,-3.8106 4.4855,-6.3802 1.4925,-2.5909 2.6244,-5.0933 3.2857,-7.1314 -1.431,1.5947 -3.0283,3.829 -4.5207,6.4199 -1.4885,2.5838 -2.6181,5.0802 -3.2803,7.1149 l -0.006,0.005 0.005,-0.002 -0.005,0.0136 0.0168,-0.0187 0.007,-0.003 c 2.0948,0.4451 4.8246,0.7158 7.8106,0.7186 2.99,0.003 5.7237,-0.263 7.8202,-0.7052 z"
           style="fill:#003c89;fill-rule:evenodd"
           id="path4778"
           inkscape:connector-curvature="0" />
      </g>
    </g>
  </g>
</svg>
