<?xml version="1.0" encoding="UTF-8" standalone="no"?>
<svg
   xmlns:dc="http://purl.org/dc/elements/1.1/"
   xmlns:cc="http://creativecommons.org/ns#"
   xmlns:rdf="http://www.w3.org/1999/02/22-rdf-syntax-ns#"
   xmlns:svg="http://www.w3.org/2000/svg"
   xmlns="http://www.w3.org/2000/svg"
   xmlns:sodipodi="http://sodipodi.sourceforge.net/DTD/sodipodi-0.dtd"
   xmlns:inkscape="http://www.inkscape.org/namespaces/inkscape"
   enable-background="new 0 0 64 64"
   height="64px"
   version="1.1"
   viewBox="0 0 64 64"
   width="64px"
   xml:space="preserve"
   id="svg2"
   inkscape:version="0.91 r13725"
   sodipodi:docname="annon.svg"><metadata
     id="metadata26"><rdf:RDF><cc:Work
         rdf:about=""><dc:format>image/svg+xml</dc:format><dc:type
           rdf:resource="http://purl.org/dc/dcmitype/StillImage" /><dc:title></dc:title></cc:Work></rdf:RDF></metadata><defs
     id="defs24" /><sodipodi:namedview
     pagecolor="#ffffff"
     bordercolor="#666666"
     borderopacity="1"
     objecttolerance="10"
     gridtolerance="10"
     guidetolerance="10"
     inkscape:pageopacity="0"
     inkscape:pageshadow="2"
     inkscape:window-width="1366"
     inkscape:window-height="703"
     id="namedview22"
     showgrid="false"
     inkscape:zoom="6.3383537"
     inkscape:cx="51.488429"
     inkscape:cy="27.8116"
     inkscape:window-x="0"
     inkscape:window-y="0"
     inkscape:window-maximized="1"
     inkscape:current-layer="svg2" /><rect
     style="color:#000000;clip-rule:nonzero;display:inline;overflow:visible;visibility:visible;opacity:1;isolation:auto;mix-blend-mode:normal;color-interpolation:sRGB;color-interpolation-filters:linearRGB;solid-color:#000000;solid-opacity:1;fill:#004c8b;fill-opacity:1;fill-rule:nonzero;stroke:none;stroke-width:3.5;stroke-linecap:round;stroke-linejoin:miter;stroke-miterlimit:4;stroke-dasharray:none;stroke-dashoffset:0;stroke-opacity:1;color-rendering:auto;image-rendering:auto;shape-rendering:auto;text-rendering:auto;enable-background:accumulate"
     id="rect3342"
     width="64"
     height="64"
     x="0"
     y="0" /><g
     style="opacity:0.2"
     id="g9"><g
       id="g11"><path
         style="fill:#231f20"
         inkscape:connector-curvature="0"
         id="path13"
         d="m 43.905,47.543 c -3.821,-1.66 -5.217,-4.242 -5.643,-6.469 2.752,-2.215 4.943,-5.756 6.148,-9.573 1.239,-1.579 1.96,-3.226 1.96,-4.62 0,-0.955 -0.347,-1.646 -0.955,-2.158 C 45.212,16.617 39.473,10.11 32.376,10.009 32.322,10.009 32.268,10 32.213,10 c -0.022,0 -0.043,0.004 -0.065,0.004 -7.052,0.039 -12.783,6.41 -13.125,14.409 -0.884,0.528 -1.394,1.305 -1.394,2.469 0,1.641 0.992,3.63 2.663,5.448 1.187,3.327 3.118,6.38 5.5,8.438 -0.354,2.292 -1.699,5.039 -5.697,6.776 -2.159,0.938 -6.105,1.781 -7.808,2.649 4.362,4.769 12.624,7.769 19.589,7.805 l 0.099,0.003 C 31.983,57.999 31.992,58 32,58 c 7.014,0 15.325,-3.01 19.713,-7.808 -1.703,-0.868 -5.65,-1.711 -7.808,-2.649 z" /></g></g><g
     id="g15"><g
       id="g17"><path
         style="fill:#ffffff"
         inkscape:connector-curvature="0"
         id="path19"
         d="m 43.905,45.543 c -3.821,-1.66 -5.217,-4.242 -5.643,-6.469 2.752,-2.215 4.943,-5.756 6.148,-9.573 1.239,-1.579 1.96,-3.226 1.96,-4.62 0,-0.955 -0.347,-1.646 -0.955,-2.158 C 45.213,14.618 39.474,8.11 32.378,8.01 32.322,8.009 32.268,8 32.213,8 32.191,8 32.17,8.004 32.148,8.004 c -7.052,0.039 -12.783,6.41 -13.125,14.409 -0.884,0.528 -1.394,1.305 -1.394,2.469 0,1.641 0.992,3.63 2.663,5.448 1.187,3.327 3.118,6.38 5.5,8.438 -0.354,2.292 -1.699,5.039 -5.697,6.776 -2.159,0.938 -6.105,1.781 -7.808,2.649 4.362,4.769 12.624,7.769 19.589,7.805 l 0.099,0.003 C 31.983,55.999 31.992,56 32,56 c 7.014,0 15.325,-3.01 19.713,-7.808 -1.703,-0.868 -5.65,-1.711 -7.808,-2.649 z" /></g></g><g
     id="Layer_2" /></svg>